<svg width="311" height="311" viewBox="0 0 311 311" fill="none" xmlns="http://www.w3.org/2000/svg">
<path d="M37.7766 41.9848L45.9372 41.8106L50.0798 41.7422C51.4668 41.7422 52.8539 41.7422 54.2472 41.7422H54.5208V42.0221L54.5582 48.9823V49.2933H54.2472L46.0305 49.2186C43.2813 49.2186 40.5383 49.1502 37.7953 49.1129H37.6211V48.9449C37.6211 47.7631 37.6771 46.5938 37.702 45.4306L37.7766 41.9848ZM37.7766 41.9848L37.8637 45.5053C37.8637 46.6622 37.9321 47.8067 37.9445 48.9449L37.7766 48.777C40.5196 48.777 43.2626 48.6775 46.0119 48.6775L54.2472 48.6339L53.9362 48.9449L53.9673 41.9848L54.2472 42.2647C52.885 42.2647 51.5352 42.2647 50.1731 42.2273L46.0803 42.1589L37.7766 41.9848Z" fill="#EBEBEB"/>
<path d="M46.9632 33.2084L55.1239 33.0342L59.2664 32.9658C60.6534 32.9658 62.0467 32.9658 63.4338 32.9658H63.7075V33.2457L63.7448 40.2059V40.5169H63.4462L55.1985 40.4298C52.4493 40.4298 49.7062 40.3614 46.9632 40.3241H46.7891V40.1561C46.7891 38.9743 46.845 37.805 46.8699 36.6418L46.9632 33.2084ZM46.9632 33.2084L47.0503 36.7289C47.0503 37.8858 47.1187 39.0303 47.1312 40.1686L46.9632 40.0006C49.7062 40.0006 52.4493 39.9011 55.1985 39.9011L63.4462 39.8576L63.1352 40.1686V33.2084L63.4151 33.4883C62.0592 33.4883 60.7032 33.4883 59.341 33.451L55.2483 33.3826L46.9632 33.2084Z" fill="#EBEBEB"/>
<path d="M62.9359 122.633L71.0965 122.459L75.239 122.391C76.6261 122.36 78.0194 122.391 79.4064 122.354H79.6801V122.633L79.7174 129.594V129.905H79.4064L71.1712 129.861C68.4219 129.861 65.6789 129.793 62.9359 129.762H62.7617V129.594C62.7617 128.412 62.8177 127.236 62.8426 126.073L62.9359 122.633ZM62.9359 122.633L63.023 126.148C63.023 127.305 63.0914 128.455 63.1038 129.594L62.9359 129.419C65.6789 129.419 68.4219 129.32 71.1712 129.32L79.4064 129.283L79.0954 129.594V122.633L79.3753 122.907C78.0132 122.907 76.6634 122.907 75.3012 122.907L71.2085 122.839L62.9359 122.633Z" fill="#EBEBEB"/>
<path d="M72.1546 113.857L80.3153 113.683L84.4578 113.614C85.8448 113.614 87.2381 113.614 88.6252 113.577H88.8989V113.857L88.9362 120.817V121.128H88.6252L80.3899 121.085C77.6407 121.085 74.8976 121.016 72.1546 120.985H71.9805V120.817C71.9805 119.635 72.0364 118.46 72.0675 117.297L72.1546 113.857ZM72.1546 113.857L72.2417 117.371C72.2417 118.528 72.3101 119.679 72.3226 120.817L72.1546 120.668C74.8976 120.637 77.6407 120.575 80.3899 120.568L88.6252 120.531L88.3142 120.842V113.882L88.5941 114.156C87.2381 114.156 85.8822 114.156 84.52 114.125L80.4272 114.056L72.1546 113.857Z" fill="#EBEBEB"/>
<path d="M28.6131 33.2084L36.78 33.0342L40.8914 32.9658C42.2722 32.9658 43.6655 32.9658 45.0526 32.9658H45.3325V33.2457L45.3636 40.2059V40.5169H45.0463L36.8173 40.4298C34.0743 40.4298 31.3312 40.3614 28.582 40.3241H28.4141V40.1561C28.4141 38.9743 28.47 37.805 28.4949 36.6418L28.6131 33.2084ZM28.6131 33.2084L28.7064 36.7289C28.7064 37.8858 28.7748 39.0303 28.7873 40.1686L28.6131 40.0006C31.3623 40.0006 34.1054 39.9011 36.8484 39.9011L45.0837 39.8576L44.7727 40.1686L44.7851 33.2084L45.0588 33.4883C43.7028 33.4883 42.3531 33.4883 40.9909 33.451L36.8981 33.3826L28.6131 33.2084Z" fill="#EBEBEB"/>
<path d="M273.227 184.367L265.066 184.541L260.924 184.616C259.537 184.616 258.15 184.616 256.756 184.647H256.483V184.367L256.445 177.413V177.096H256.756L264.992 177.133C267.741 177.133 270.484 177.201 273.227 177.233H273.401V177.4C273.401 178.576 273.345 179.752 273.32 180.915L273.227 184.367ZM273.227 184.367L273.14 180.853C273.14 179.696 273.071 178.551 273.059 177.413L273.227 177.581C270.484 177.612 267.741 177.68 264.992 177.68L256.756 177.718L257.067 177.413L257.036 184.367L256.756 184.093C258.118 184.093 259.468 184.093 260.83 184.093L264.923 184.168L273.227 184.367Z" fill="#EBEBEB"/>
<path d="M282.418 193.143L274.251 193.317L270.109 193.392C268.722 193.392 267.335 193.392 265.948 193.423H265.668V193.143L265.637 186.183V185.872H265.954L274.189 185.909C276.932 185.909 279.675 185.978 282.424 186.009H282.592V186.171C282.592 187.352 282.536 188.528 282.512 189.691L282.418 193.143ZM282.418 193.143L282.325 189.629C282.325 188.472 282.257 187.328 282.244 186.183L282.418 186.357C279.669 186.388 276.926 186.457 274.183 186.457L265.948 186.494L266.259 186.183L266.215 193.143L265.941 192.87C267.297 192.87 268.647 192.87 270.009 192.901L274.102 192.975L282.418 193.143Z" fill="#EBEBEB"/>
<path d="M54.3831 193.143L46.2225 193.317L42.08 193.392C40.6929 193.392 39.2996 193.392 37.9126 193.423H37.6389V193.143L37.6016 186.183V185.872H37.9437L46.1789 185.909C48.9282 185.909 51.6712 185.978 54.4142 186.009H54.5884V186.171C54.5884 187.352 54.5324 188.528 54.5013 189.691L54.3831 193.143ZM54.3831 193.143L54.296 189.629C54.296 188.472 54.2276 187.328 54.2152 186.183L54.3831 186.357C51.6401 186.388 48.8971 186.457 46.1478 186.457L37.9437 186.494L38.2547 186.183L38.2236 193.143L37.9437 192.87C39.2996 192.87 40.6556 192.87 42.0178 192.901L46.1105 192.975L54.3831 193.143Z" fill="#EBEBEB"/>
<path d="M256.687 33.2084L264.854 33.0342L268.997 32.9658C270.378 32.9658 271.771 32.9658 273.158 32.9658H273.438V33.2457L273.469 40.2059V40.5169H273.158L264.923 40.4298C262.18 40.4298 259.43 40.3614 256.687 40.3241H256.52V40.1561C256.52 38.9743 256.569 37.805 256.6 36.6418L256.687 33.2084ZM256.687 33.2084L256.775 36.7289C256.806 37.8858 256.849 39.0303 256.855 40.1686L256.687 40.0006C259.43 40.0006 262.18 39.9011 264.923 39.9011L273.158 39.8576L272.847 40.1686L272.884 33.2084L273.158 33.4883C271.802 33.4883 270.446 33.4883 269.09 33.451L264.973 33.3826L256.687 33.2084Z" fill="#EBEBEB"/>
<path d="M280.317 140.435H197.504V24.7866H280.317V140.435ZM199.961 137.978H277.86V27.2435H199.961V137.978Z" fill="#EBEBEB"/>
<path d="M240.137 27.8843H237.68V139.204H240.137V27.8843Z" fill="#EBEBEB"/>
<path d="M282.55 29.7563H195.277V33.1773H282.55V29.7563Z" fill="#EBEBEB"/>
<path d="M282.55 33.6064H195.277V37.0274H282.55V33.6064Z" fill="#EBEBEB"/>
<path d="M282.55 37.4507H195.277V40.8717H282.55V37.4507Z" fill="#EBEBEB"/>
<path d="M282.55 41.3008H195.277V44.7218H282.55V41.3008Z" fill="#EBEBEB"/>
<path d="M282.55 45.1509H195.277V48.5719H282.55V45.1509Z" fill="#EBEBEB"/>
<path d="M282.55 49.001H195.277V52.422H282.55V49.001Z" fill="#EBEBEB"/>
<path d="M282.55 52.8511H195.277V56.2721H282.55V52.8511Z" fill="#EBEBEB"/>
<path d="M282.55 56.7012H195.277V60.1222H282.55V56.7012Z" fill="#EBEBEB"/>
<path d="M282.55 60.5518H195.277V63.9728H282.55V60.5518Z" fill="#EBEBEB"/>
<path d="M275.249 29.0596H274.633V95.6447H275.249V29.0596Z" fill="#A6A6A6"/>
<path d="M276.031 98.506H273.848L274.395 95.3711H275.484L276.031 98.506Z" fill="#A6A6A6"/>
<path d="M277.463 29.0596H276.848V112.439H277.463V29.0596Z" fill="#A6A6A6"/>
<path d="M278.246 114.746H276.062L276.61 111.611H277.698L278.246 114.746Z" fill="#A6A6A6"/>
<path d="M286.363 24.3076H191.465V31.4668H286.363V24.3076Z" fill="#DBDBDB"/>
<path d="M95.8138 65.3594H26.2617V69.4895H95.8138V65.3594Z" fill="#EBEBEB"/>
<path d="M35.673 69.4897H31.543V83.1489H35.673V69.4897Z" fill="#EBEBEB"/>
<path d="M35.673 69.4897H31.543V73.7131H35.673V69.4897Z" fill="#DBDBDB"/>
<path d="M90.5324 69.4897H86.4023V83.1489H90.5324V69.4897Z" fill="#EBEBEB"/>
<path d="M90.5324 69.4897H86.4023V73.7131H90.5324V69.4897Z" fill="#DBDBDB"/>
<path d="M41.9414 65.3597V39.0366H35.3109V65.3597H41.9414Z" fill="#C7C7C7"/>
<path d="M41.9414 40.5295V37.6372H35.3109V40.5295H41.9414Z" fill="#DBDBDB"/>
<path d="M41.9414 45.3065V44.2305H35.3109V45.3065H41.9414Z" fill="#DBDBDB"/>
<path d="M42.7695 61.9074V59.0151H35.318V61.9074H42.7695Z" fill="#DBDBDB"/>
<path d="M46.5703 65.3596V34.6577H41.9364V65.3596H46.5703Z" fill="#DBDBDB"/>
<path d="M45.625 49.3557V37.5439H42.8447V49.3557H45.625Z" fill="#EBEBEB"/>
<path d="M79.5178 62.0734L57.6836 40.4893L54.4259 43.7847L76.2601 65.3689L79.5178 62.0734Z" fill="#C7C7C7"/>
<path d="M73.7634 57.655L65.3633 49.3511L63.4086 51.3284L71.8088 59.6323L73.7634 57.655Z" fill="#DBDBDB"/>
<path d="M54.4375 65.3657V42.0469H46.5692V65.3657H54.4375Z" fill="#A6A6A6"/>
<path d="M54.4375 62.8905V60.7197H46.5692V62.8905H54.4375Z" fill="#C7C7C7"/>
<path d="M54.4375 59.2951V58.4492H46.5692V59.2951H54.4375Z" fill="#C7C7C7"/>
<path d="M35.3125 65.3719V43.4526H29.8762V65.3719H35.3125Z" fill="#A6A6A6"/>
<path d="M35.3125 63.0397V60.9995H29.8762V63.0397H35.3125Z" fill="#C7C7C7"/>
<path d="M35.3125 50.0026V47.9624H29.8762V50.0026H35.3125Z" fill="#C7C7C7"/>
<path d="M35.3125 52.1981V51.4082H29.8762V52.1981H35.3125Z" fill="#C7C7C7"/>
<path d="M280.719 277.779C280.719 286.605 224.652 293.764 155.498 293.764C86.3444 293.764 30.2773 286.605 30.2773 277.779C30.2773 268.953 86.3444 261.793 155.498 261.793C224.652 261.793 280.719 268.953 280.719 277.779Z" fill="#EBEBEB"/>
<path d="M248.887 203.17C248.887 203.17 238.568 200.831 232.914 195.619C227.26 190.407 224.094 181.07 224.094 181.07C228.016 181.822 231.884 182.839 235.669 184.112C237.089 185.577 238.271 187.256 239.171 189.088C239.26 187.91 239.26 186.727 239.171 185.549C240.493 186.118 241.73 186.868 242.847 187.775C247.556 191.856 248.887 203.17 248.887 203.17Z" fill="black"/>
<path d="M230.538 185.605C229.132 184.635 227.701 183.695 226.302 182.713C226.215 182.657 226.302 182.52 226.383 182.576C229.045 184.162 231.663 185.86 234.201 187.639C235.085 188.261 235.955 188.901 236.814 189.561L236.633 189.256C236.322 188.74 236.011 188.23 235.669 187.72C235.023 186.685 234.29 185.707 233.48 184.796C233.449 184.765 233.48 184.715 233.53 184.746C234.332 185.673 235.134 186.612 235.868 187.577C236.217 188.043 236.54 188.528 236.851 189.02C237.013 189.281 237.168 189.536 237.311 189.803L237.467 190.065C238.804 191.116 240.104 192.21 241.342 193.361C242.109 194.074 242.849 194.812 243.562 195.575C243.158 194.331 242.81 193.087 242.349 191.843C242.349 191.8 242.405 191.781 242.418 191.843C242.866 193.131 243.357 194.431 243.705 195.756C244.495 196.608 245.254 197.491 245.963 198.418L245.926 198.25C245.808 197.759 245.69 197.274 245.559 196.795C245.31 195.862 245.03 194.929 244.719 194.014C244.124 192.115 243.184 190.341 241.945 188.783C241.914 188.746 241.945 188.696 241.995 188.733C243.928 191.146 245.282 193.969 245.951 196.987C246.063 197.423 246.162 197.864 246.262 198.306C246.318 198.542 246.38 198.779 246.417 199.021C246.728 199.444 247.039 199.867 247.332 200.303C249.084 202.995 250.543 205.866 251.686 208.868C252.983 212.234 254.096 215.668 255.02 219.156C255.016 219.166 255.009 219.176 254.999 219.183C254.99 219.189 254.978 219.193 254.967 219.193C254.955 219.193 254.944 219.189 254.934 219.183C254.925 219.176 254.918 219.166 254.914 219.156C252.892 213.116 250.834 206.989 247.375 201.596C246.646 200.456 245.859 199.354 245.018 198.294C243.308 198.184 241.62 197.85 239.998 197.298C238.229 196.699 236.541 195.882 234.973 194.866C234.079 194.263 233.217 193.613 232.391 192.92C232.386 192.918 232.381 192.914 232.377 192.91C232.373 192.906 232.37 192.901 232.368 192.895C232.366 192.889 232.366 192.883 232.367 192.877C232.368 192.872 232.371 192.866 232.374 192.862C232.378 192.857 232.383 192.853 232.388 192.851C232.393 192.848 232.399 192.847 232.405 192.847C232.411 192.847 232.417 192.849 232.422 192.852C232.427 192.855 232.431 192.859 232.435 192.864C233.877 194.028 235.469 194.992 237.168 195.731C238.836 196.496 240.582 197.08 242.374 197.473C243.133 197.641 243.911 197.765 244.682 197.871C243.728 196.695 242.712 195.569 241.64 194.499C241.292 194.151 240.931 193.815 240.571 193.479C239.368 192.638 238.092 191.908 236.758 191.296C235.066 190.475 233.399 189.611 231.726 188.758C230.78 188.279 229.86 187.788 228.896 187.322C228.852 187.322 228.896 187.247 228.933 187.266C230.625 188.087 232.348 188.852 234.058 189.635C235.769 190.419 237.305 191.116 238.848 191.98L239.047 192.099C237.647 190.855 236.198 189.722 234.693 188.603C233.337 187.595 231.95 186.6 230.538 185.605Z" fill="#263238"/>
<path d="M231.127 190.954C231.967 191.321 232.819 191.644 233.652 192.036C234.486 192.428 235.313 192.901 236.14 193.38C236.144 193.382 236.147 193.385 236.15 193.388C236.152 193.391 236.154 193.395 236.155 193.399C236.157 193.403 236.157 193.407 236.157 193.411C236.156 193.416 236.155 193.42 236.153 193.423C236.151 193.427 236.148 193.43 236.145 193.433C236.141 193.435 236.138 193.437 236.133 193.439C236.129 193.44 236.125 193.44 236.121 193.44C236.117 193.439 236.113 193.438 236.109 193.436C235.288 193.044 234.455 192.677 233.621 192.266C232.788 191.856 231.96 191.396 231.102 191.022C231.065 190.954 231.083 190.91 231.127 190.954Z" fill="#263238"/>
<path d="M282.388 151.146C280.472 153.603 279.383 156.603 279.278 159.717C279.246 160.644 279.39 161.938 279.501 163.449C276.925 164.944 274.642 166.896 272.765 169.209C274.825 168.012 277.191 167.445 279.57 167.579C279.517 168.624 279.386 169.664 279.178 170.689C277.684 170.694 276.206 170.987 274.824 171.554C276.179 171.54 277.521 171.806 278.768 172.338C276.902 178.191 271.465 184.205 256.376 186.755C254.777 179.577 255.723 172.066 259.05 165.508C263.584 156.595 282.388 151.146 282.388 151.146Z" fill="black"/>
<path d="M251.163 211.785C251.424 209.297 251.75 206.809 252.139 204.321C252.904 199.346 253.919 194.414 255.181 189.542C255.774 187.255 256.503 185.006 257.364 182.806C257.321 182.405 257.302 182.002 257.308 181.599C257.308 181.114 257.308 180.629 257.308 180.144C257.308 179.18 257.364 178.216 257.445 177.251C257.598 175.34 257.908 173.445 258.372 171.585C258.652 170.509 258.994 169.452 259.286 168.388C259.289 168.381 259.294 168.376 259.3 168.372C259.306 168.368 259.313 168.366 259.32 168.366C259.328 168.366 259.335 168.368 259.341 168.372C259.347 168.376 259.352 168.381 259.355 168.388C258.851 170.244 258.477 172.134 258.235 174.042C257.968 175.921 257.8 177.812 257.731 179.708C257.731 180.225 257.7 180.747 257.7 181.263C257.7 181.487 257.7 181.711 257.7 181.929C258.443 180.126 259.293 178.369 260.244 176.667C261.778 173.968 263.506 171.384 265.413 168.935C265.417 168.649 265.459 168.365 265.537 168.089C265.606 167.753 265.68 167.418 265.755 167.075C265.911 166.391 266.085 165.701 266.271 165.023C266.645 163.654 267.142 162.33 267.571 160.98C267.574 160.973 267.579 160.968 267.585 160.964C267.591 160.96 267.598 160.957 267.606 160.957C267.613 160.957 267.62 160.96 267.626 160.964C267.632 160.968 267.637 160.973 267.64 160.98C267.242 162.317 266.974 163.704 266.669 165.066C266.514 165.738 266.371 166.41 266.222 167.088C266.147 167.424 266.072 167.76 266.004 168.096C266.004 168.096 266.004 168.152 266.004 168.176C266.613 167.405 267.235 166.646 267.87 165.9C270.75 162.516 273.909 159.394 277.094 156.302C277.486 155.917 277.884 155.55 278.282 155.17C278.282 155.17 278.363 155.17 278.332 155.226C275.29 158.399 272.299 161.602 269.462 164.961C268.784 165.763 268.125 166.572 267.472 167.386L268.504 166.702C269.381 166.13 270.271 165.57 271.185 165.06C272.099 164.55 273.051 164.04 273.965 163.574C274.88 163.107 275.968 162.703 276.908 162.162C276.945 162.162 276.982 162.205 276.939 162.224C275.984 162.664 275.063 163.174 274.183 163.748C273.263 164.295 272.348 164.843 271.446 165.415C270.544 165.987 269.667 166.534 268.784 167.107C268.05 167.586 267.329 168.108 266.564 168.543C264.813 170.793 263.198 173.144 261.725 175.584C260.815 177.123 259.984 178.707 259.237 180.33L259.778 180.094L261.165 179.472C262.048 179.08 262.944 178.694 263.833 178.309C265.525 177.569 267.248 176.897 268.909 176.088C269.845 175.647 270.751 175.144 271.621 174.583C271.658 174.583 271.689 174.583 271.652 174.645C268.542 176.779 265.083 178.278 261.662 179.795L260.176 180.455C259.765 180.635 259.355 180.834 258.932 180.996C257.916 183.265 257.062 185.604 256.375 187.993C255.027 192.801 253.93 197.676 253.091 202.598C252.227 207.53 251.642 212.494 251.188 217.482C251.132 218.104 251.076 218.726 251.001 219.348C250.993 219.394 250.969 219.436 250.933 219.466C250.897 219.496 250.852 219.512 250.805 219.512C250.759 219.512 250.713 219.496 250.678 219.466C250.642 219.436 250.618 219.394 250.609 219.348C250.665 216.835 250.895 214.304 251.163 211.785Z" fill="#263238"/>
<path d="M260.349 170.086C260.623 168.55 261.033 167.05 261.444 165.545C261.444 165.502 261.524 165.545 261.512 165.545C261.133 167.019 260.859 168.525 260.579 170.017C260.299 171.51 260.05 173.078 259.833 174.614C259.833 174.614 259.789 174.645 259.789 174.614C259.89 173.095 260.076 171.583 260.349 170.086Z" fill="#263238"/>
<path d="M266.838 174.247C267.889 173.551 268.986 172.928 270.122 172.381C270.669 172.101 271.229 171.827 271.783 171.56C272.336 171.292 272.958 171.05 273.531 170.764C273.568 170.764 273.599 170.801 273.531 170.82C272.977 171.1 272.455 171.442 271.913 171.728L270.234 172.648C269.133 173.239 268.045 173.892 266.888 174.377C266.875 174.374 266.863 174.367 266.853 174.358C266.842 174.349 266.835 174.337 266.83 174.325C266.825 174.312 266.823 174.298 266.825 174.285C266.826 174.271 266.831 174.258 266.838 174.247Z" fill="#263238"/>
<path opacity="0.1" d="M248.702 185.294C248.702 185.294 239.154 183.011 234.769 176.586C230.583 170.472 229.227 160.041 229.121 159.12C229.289 159.966 231.261 169.072 237.761 173.327C242.743 176.598 247.557 179.273 248.702 185.294Z" fill="#263238"/>
<path d="M248.7 185.294C248.7 185.294 239.152 183.011 234.767 176.586C230.581 170.471 229.225 160.04 229.119 159.12C229.116 159.099 229.116 159.078 229.119 159.058C229.119 159.058 233.697 165.57 238.512 167.231C243.326 168.891 250.081 174.651 248.7 185.294Z" fill="black"/>
<path d="M230.8 162.666C231.657 164.421 232.644 166.109 233.754 167.716C234.867 169.241 236.188 170.602 237.679 171.759C238.979 172.792 240.348 173.725 241.66 174.732V174.683C241.411 174.322 241.15 173.961 240.876 173.619C240.329 172.916 239.732 172.257 239.129 171.604C237.947 170.316 236.734 169.053 235.67 167.66C235.077 166.885 234.564 166.051 234.14 165.172C234.14 165.129 234.184 165.11 234.202 165.172C235.751 168.4 238.849 170.465 241.044 173.19C241.357 173.577 241.649 173.98 241.921 174.396C242.14 174.699 242.326 175.024 242.475 175.367C243.684 176.337 244.778 177.443 245.734 178.663C245.651 178.033 245.522 177.409 245.349 176.797C245.128 175.947 244.786 175.132 244.335 174.378C244.335 174.34 244.372 174.297 244.397 174.34C244.858 175.096 245.231 175.902 245.51 176.741C245.712 177.41 245.829 178.102 245.859 178.8C246.332 179.442 246.764 180.113 247.152 180.809C247.109 180.604 247.071 180.399 247.034 180.187C246.841 179.236 246.636 178.284 246.412 177.345C245.961 175.433 245.185 173.613 244.117 171.964C244.086 171.927 244.117 171.89 244.173 171.927C245.268 173.55 246.125 175.323 246.717 177.189C247.022 178.128 247.264 179.055 247.482 180.044C247.588 180.511 247.681 180.983 247.768 181.456C247.818 181.699 247.868 181.954 247.911 182.203C248.857 184.283 249.594 186.452 250.113 188.678C251.049 192.654 251.728 196.687 252.147 200.751C252.64 205.005 252.86 209.287 252.806 213.57C252.806 214.111 252.763 214.646 252.738 215.181C252.738 215.318 252.52 215.343 252.514 215.181C252.421 213.06 252.365 210.939 252.24 208.824C252.116 206.709 251.929 204.595 251.705 202.48C251.27 198.331 250.605 194.209 249.715 190.133C248.937 186.644 247.936 183.129 246.027 180.069C245.078 178.546 243.918 177.166 242.581 175.97C241.243 174.77 239.782 173.718 238.37 172.605C236.939 171.516 235.641 170.264 234.501 168.873C233.336 167.331 232.319 165.681 231.465 163.947L230.781 162.653C230.719 162.666 230.763 162.628 230.8 162.666Z" fill="#263238"/>
<path d="M232.447 164.071C233.075 165.359 233.785 166.606 234.574 167.803C234.574 167.803 234.574 167.859 234.53 167.803C233.71 166.621 232.99 165.373 232.378 164.071C232.36 164.052 232.428 164.028 232.447 164.071Z" fill="#263238"/>
<path d="M283.742 181.07C283.742 181.07 283.898 194.642 275.78 198.555C267.663 202.467 263.34 199.214 257.805 200.526C258.016 200.203 261.953 194.543 268.211 192.988C274.655 191.377 281.764 186.724 283.742 181.07Z" fill="black"/>
<path opacity="0.1" d="M283.742 181.07C283.742 181.07 283.898 194.642 275.78 198.555C267.663 202.467 263.34 199.214 257.805 200.526C260.719 199.136 263.834 198.215 267.035 197.796C272.154 197.174 281.926 193.846 283.742 181.07Z" fill="black"/>
<path d="M257.272 200.769C258.236 199.886 259.323 199.148 260.5 198.58C260.668 198.499 260.849 198.43 261.029 198.356C261.111 198.246 261.201 198.143 261.296 198.045C261.545 197.79 261.794 197.547 262.061 197.317C262.572 196.879 263.119 196.485 263.697 196.141C265.041 195.351 266.515 194.798 267.89 194.064C267.927 194.064 267.964 194.101 267.921 194.126C267.243 194.474 266.583 194.866 265.924 195.252C265.265 195.638 264.624 195.986 263.996 196.39C263.434 196.752 262.897 197.154 262.391 197.591C262.248 197.715 262.111 197.852 261.974 197.989C262.872 197.687 263.788 197.444 264.717 197.261C266.204 196.962 267.703 196.751 269.19 196.434C269.916 196.278 270.635 196.085 271.342 195.855C272.013 195.308 272.685 194.773 273.326 194.182C274.097 193.475 274.798 192.696 275.422 191.856C275.422 191.825 275.509 191.856 275.478 191.893C274.495 193.225 273.382 194.456 272.156 195.569C272.505 195.432 272.847 195.289 273.189 195.134C275.978 193.885 278.37 191.895 280.106 189.38C280.106 189.343 280.193 189.38 280.168 189.418C278.692 191.575 276.786 193.405 274.57 194.792C273.461 195.484 272.275 196.046 271.037 196.465C269.598 196.91 268.131 197.258 266.646 197.504C265.19 197.74 263.754 198.081 262.348 198.524C261.053 198.962 259.835 199.603 258.74 200.421C256.674 202.026 255.009 204.09 253.876 206.448C252.422 209.588 251.515 212.954 251.195 216.4C251.195 216.543 250.959 216.543 250.965 216.4C251.344 210.665 252.874 204.725 257.272 200.769Z" fill="#263238"/>
<path d="M266.686 196.34C267.11 195.707 267.682 195.188 268.353 194.829C269.123 194.427 269.799 193.868 270.338 193.187C270.338 193.15 270.425 193.187 270.394 193.224C269.907 193.844 269.315 194.375 268.646 194.792C267.909 195.184 267.26 195.721 266.736 196.371C266.711 196.403 266.662 196.371 266.686 196.34Z" fill="#263238"/>
<path d="M262.378 210.783L262.011 218.247L260.879 241.043H243.854L242.722 218.247L242.355 210.783H262.378Z" fill="#F0F0F0"/>
<path d="M262.378 210.783L262.011 218.247H242.722L242.355 210.783H262.378Z" fill="#263238"/>
<path d="M263.571 207.667H241.16V214.789H263.571V207.667Z" fill="#F0F0F0"/>
<path d="M26.2617 241.043L58.5684 240.894L90.8813 240.838L155.501 240.732L220.12 240.838L252.433 240.894L284.74 241.043L252.433 241.199L220.12 241.255L155.501 241.354L90.8813 241.249L58.5684 241.199L26.2617 241.043Z" fill="#263238"/>
<path d="M233.387 257.67V40.8843C233.387 36.4563 229.797 32.8667 225.369 32.8667L85.6368 32.8667C81.2088 32.8667 77.6193 36.4563 77.6193 40.8843V257.67C77.6193 262.098 81.2088 265.688 85.6368 265.688H225.369C229.797 265.688 233.387 262.098 233.387 257.67Z" fill="black"/>
<path d="M226.815 49.1631H84.3711V249.534H226.815V49.1631Z" fill="white"/>
<path d="M172.445 42.7563V41.8918C172.445 41.4624 172.097 41.1143 171.668 41.1143H139.324C138.894 41.1143 138.546 41.4624 138.546 41.8918V42.7563C138.546 43.1857 138.894 43.5338 139.324 43.5338H171.668C172.097 43.5338 172.445 43.1857 172.445 42.7563Z" fill="white"/>
<path d="M155.502 261.794C157.924 261.794 159.887 259.83 159.887 257.409C159.887 254.987 157.924 253.023 155.502 253.023C153.08 253.023 151.117 254.987 151.117 257.409C151.117 259.83 153.08 261.794 155.502 261.794Z" fill="black"/>
<path d="M204.87 76.6802H106.32V78.0672H204.87V76.6802Z" fill="#EBEBEB"/>
<path d="M204.87 80.9844H106.32V82.3714H204.87V80.9844Z" fill="#EBEBEB"/>
<path d="M204.87 212.059H106.32V213.446H204.87V212.059Z" fill="#EBEBEB"/>
<path d="M204.87 216.363H106.32V217.75H204.87V216.363Z" fill="#EBEBEB"/>
<path d="M130.28 231.297C132.794 231.297 134.833 229.259 134.833 226.744C134.833 224.229 132.794 222.191 130.28 222.191C127.765 222.191 125.727 224.229 125.727 226.744C125.727 229.259 127.765 231.297 130.28 231.297Z" fill="black"/>
<path d="M130.353 229.4L127.641 226.657L128.555 225.755L130.135 227.36L133.431 222.197L134.508 222.888L130.353 229.4Z" fill="white"/>
<path d="M141.682 226.707C141.685 226.38 141.744 226.056 141.856 225.749C141.972 225.436 142.147 225.148 142.373 224.903C142.613 224.631 142.909 224.416 143.241 224.271C143.573 224.126 143.933 224.055 144.295 224.063C144.731 224.056 145.161 224.167 145.539 224.387C145.877 224.583 146.151 224.872 146.329 225.22L145.551 225.786C145.489 225.646 145.403 225.517 145.296 225.407C145.202 225.311 145.095 225.23 144.979 225.164C144.864 225.106 144.743 225.062 144.618 225.033C144.497 225.009 144.374 224.996 144.251 224.996C144.018 224.99 143.787 225.044 143.579 225.152C143.392 225.25 143.229 225.388 143.1 225.556C142.972 225.726 142.875 225.918 142.814 226.122C142.673 226.546 142.673 227.004 142.814 227.428C142.884 227.637 142.991 227.831 143.132 228C143.269 228.163 143.436 228.298 143.623 228.399C143.816 228.497 144.029 228.548 144.245 228.548C144.371 228.546 144.496 228.529 144.618 228.498C144.747 228.471 144.87 228.425 144.985 228.361C145.103 228.293 145.212 228.209 145.309 228.112C145.411 228.003 145.493 227.877 145.551 227.739L146.391 228.224C146.307 228.423 146.185 228.603 146.03 228.753C145.874 228.906 145.696 229.033 145.501 229.132C145.106 229.345 144.663 229.456 144.214 229.456C143.854 229.459 143.498 229.378 143.175 229.22C142.868 229.066 142.594 228.855 142.367 228.598C142.14 228.341 141.961 228.046 141.838 227.727C141.72 227.4 141.667 227.054 141.682 226.707Z" fill="black"/>
<path d="M149.331 229.431C148.966 229.437 148.604 229.358 148.274 229.201C147.656 228.902 147.177 228.376 146.937 227.733C146.813 227.418 146.75 227.082 146.75 226.744C146.75 226.396 146.817 226.052 146.949 225.73C147.075 225.413 147.259 225.122 147.49 224.872C147.724 224.614 148.005 224.403 148.317 224.25C148.644 224.103 148.998 224.029 149.356 224.032C149.718 224.025 150.077 224.107 150.401 224.268C150.712 224.419 150.989 224.631 151.216 224.89C151.455 225.152 151.642 225.456 151.77 225.786C151.892 226.099 151.955 226.433 151.956 226.769C151.956 227.117 151.889 227.461 151.757 227.783C151.635 228.099 151.454 228.388 151.222 228.635C150.989 228.882 150.71 229.08 150.401 229.22C150.065 229.371 149.699 229.443 149.331 229.431ZM147.795 226.744C147.796 226.97 147.831 227.195 147.901 227.41C147.966 227.614 148.067 227.806 148.199 227.976C148.334 228.138 148.499 228.273 148.684 228.374C148.887 228.473 149.111 228.523 149.338 228.517C149.568 228.521 149.796 228.47 150.003 228.367C150.19 228.266 150.355 228.129 150.488 227.963C150.619 227.79 150.72 227.597 150.787 227.391C150.848 227.189 150.882 226.98 150.886 226.769C150.887 226.542 150.849 226.317 150.774 226.103C150.708 225.898 150.605 225.706 150.47 225.537C150.341 225.371 150.175 225.236 149.984 225.146C149.791 225.05 149.578 225.001 149.362 225.002C149.134 224.998 148.908 225.049 148.703 225.152C148.512 225.246 148.345 225.385 148.218 225.556C148.086 225.726 147.985 225.917 147.919 226.122C147.847 226.322 147.805 226.532 147.795 226.744Z" fill="black"/>
<path d="M153.741 225.998V229.394H152.715V224.094H153.511L156.273 227.571V224.1H157.305V229.394H156.466L153.741 225.998Z" fill="black"/>
<path d="M158.406 229.394V224.094H161.97V224.996H159.439V226.365H161.541V227.198H159.439V229.394H158.406Z" fill="black"/>
<path d="M162.691 229.394V224.094H163.724V229.394H162.691Z" fill="black"/>
<path d="M164.832 229.394V224.094H167.177C167.411 224.092 167.643 224.143 167.855 224.244C168.055 224.346 168.237 224.483 168.39 224.648C168.536 224.816 168.654 225.008 168.738 225.214C168.819 225.411 168.861 225.623 168.863 225.836C168.868 226.167 168.78 226.493 168.608 226.775C168.448 227.052 168.204 227.27 167.911 227.397L169.118 229.394H167.942L166.86 227.615H165.846V229.394H164.832ZM165.865 226.713H167.158C167.25 226.715 167.341 226.692 167.42 226.645C167.502 226.6 167.574 226.539 167.631 226.464C167.696 226.383 167.744 226.29 167.774 226.19C167.812 226.082 167.831 225.969 167.83 225.855C167.829 225.738 167.808 225.622 167.768 225.512C167.731 225.412 167.677 225.319 167.606 225.239C167.541 225.165 167.463 225.104 167.376 225.058C167.293 225.017 167.201 224.995 167.109 224.996H165.865V226.713Z" fill="black"/>
<path d="M174.113 229.394V225.886L172.751 228.498H172.191L170.822 225.886V229.394H169.809V224.094H170.916L172.483 227.111L174.063 224.094H175.164V229.394H174.113Z" fill="black"/>
<path d="M179.928 228.492V229.394H176.246V224.094H179.86V224.996H177.272V226.24H179.505V227.08H177.272V228.461L179.928 228.492Z" fill="black"/>
<path d="M180.734 229.394V224.095H182.656C183.046 224.085 183.434 224.157 183.795 224.306C184.107 224.432 184.387 224.625 184.616 224.872C184.836 225.115 185.003 225.401 185.107 225.712C185.335 226.4 185.335 227.144 185.107 227.833C184.993 228.144 184.814 228.428 184.581 228.664C184.348 228.9 184.067 229.083 183.757 229.201C183.412 229.335 183.045 229.4 182.675 229.394H180.734ZM184.23 226.738C184.235 226.5 184.199 226.262 184.124 226.035C184.063 225.831 183.959 225.642 183.819 225.482C183.685 225.326 183.517 225.203 183.328 225.121C183.114 225.036 182.886 224.994 182.656 224.997H181.761V228.492H182.656C182.889 228.494 183.12 228.448 183.334 228.355C183.524 228.271 183.692 228.146 183.826 227.988C183.961 227.823 184.063 227.633 184.124 227.429C184.199 227.206 184.234 226.973 184.23 226.738Z" fill="black"/>
<path d="M194.463 202.399H116.539V136.479L155.495 111.736L194.463 136.479V202.399Z" fill="black"/>
<path opacity="0.2" d="M194.463 202.399H116.539V136.479L155.495 111.736L194.463 136.479V202.399Z" fill="black"/>
<path d="M190.065 108.602H120.93V197.355H190.065V108.602Z" fill="#EBEBEB"/>
<path d="M151.291 161.701L135.461 145.679L140.779 140.423L150.028 149.784L169.236 119.667L175.543 123.685L151.291 161.701Z" fill="black"/>
<path d="M194.463 153.012V202.399H116.539V153.012C119.885 154.878 123.176 156.893 126.491 158.834C129.806 160.775 133.09 162.79 136.368 164.805C140.02 167.026 143.671 169.29 147.309 171.566L147.428 171.498C147.39 171.498 147.365 171.56 147.334 171.579C150.054 173.258 152.777 174.948 155.501 176.648C158.213 174.938 160.944 173.215 163.668 171.529C163.637 171.529 163.612 171.473 163.575 171.448C163.611 171.474 163.651 171.495 163.693 171.51C167.33 169.242 170.977 166.986 174.634 164.743C177.914 162.74 181.202 160.754 184.499 158.784C187.845 156.862 191.117 154.878 194.463 153.012Z" fill="black"/>
<g opacity="0.2">
<path d="M194.463 153.012C191.316 155.22 188.113 157.366 184.94 159.518C181.768 161.67 178.54 163.773 175.318 165.881C171.959 168.083 168.594 170.264 165.223 172.425L164.918 172.636L155.943 178.359L155.495 178.626L155.06 178.359L146.097 172.624L145.779 172.425C142.4 170.26 139.031 168.075 135.672 165.869C132.462 163.773 129.259 161.646 126.062 159.518C122.865 157.391 119.686 155.189 116.539 153.012C119.885 154.878 123.176 156.893 126.491 158.834C129.806 160.775 133.09 162.79 136.368 164.805C140.02 167.026 143.671 169.29 147.309 171.566C150.046 173.254 152.777 174.948 155.501 176.648C158.213 174.938 160.944 173.215 163.668 171.529C167.305 169.261 170.952 167.005 174.609 164.762C177.889 162.759 181.177 160.773 184.474 158.803C187.845 156.862 191.117 154.878 194.463 153.012Z" fill="black"/>
<path d="M147.415 171.467C147.378 171.467 147.353 171.529 147.322 171.548L146.078 172.593C144.125 174.241 142.122 175.821 140.088 177.357C137.6 179.223 135.068 181.089 132.518 182.868C129.968 184.647 127.381 186.389 124.743 188.074C122.106 189.76 119.456 191.408 116.707 192.92C119.071 190.848 121.528 188.914 124.009 187.035C126.491 185.157 129.041 183.303 131.579 181.518C134.117 179.733 136.729 177.985 139.36 176.3C141.456 174.956 143.59 173.631 145.761 172.394C146.264 172.101 146.768 171.821 147.285 171.535L147.415 171.467Z" fill="black"/>
<path d="M194.278 192.92C191.528 191.408 188.86 189.76 186.242 188.074C183.623 186.389 181.004 184.635 178.454 182.868C175.904 181.102 173.366 179.248 170.884 177.357C168.863 175.821 166.86 174.247 164.919 172.605L163.675 171.548C163.644 171.548 163.619 171.492 163.582 171.467C163.619 171.492 163.658 171.513 163.7 171.529C164.216 171.821 164.72 172.101 165.224 172.394C167.395 173.638 169.516 174.956 171.625 176.3C174.256 177.985 176.831 179.739 179.393 181.518C181.956 183.297 184.481 185.138 186.963 187.035C189.445 188.933 191.914 190.848 194.278 192.92Z" fill="black"/>
</g>
<path d="M122.163 104.372C121.748 100.953 121.748 97.4965 122.163 94.0776C122.577 97.4965 122.577 100.953 122.163 104.372Z" fill="#263238"/>
<path d="M117.784 106.007C116.42 104.956 115.13 103.813 113.921 102.586C112.693 101.381 111.55 100.093 110.5 98.73C113.211 100.855 115.657 103.298 117.784 106.007Z" fill="#263238"/>
<path d="M115.849 110.256C114.141 110.477 112.42 110.581 110.699 110.567C108.979 110.586 107.26 110.484 105.555 110.262C107.26 110.038 108.979 109.934 110.699 109.951C112.42 109.935 114.141 110.037 115.849 110.256Z" fill="#263238"/>
<path d="M117.484 114.628C115.357 117.337 112.914 119.783 110.207 121.912C112.329 119.197 114.773 116.749 117.484 114.622V114.628Z" fill="#263238"/>
<path d="M188.372 104.372C188.156 102.664 188.054 100.943 188.068 99.2216C188.055 97.5017 188.161 95.783 188.385 94.0776C188.799 97.4965 188.799 100.953 188.385 104.372H188.372Z" fill="#263238"/>
<path d="M192.754 106.007C194.881 103.298 197.326 100.855 200.038 98.73C198.987 100.093 197.844 101.381 196.617 102.586C195.408 103.813 194.117 104.956 192.754 106.007Z" fill="#263238"/>
<path d="M194.688 110.256C196.395 110.037 198.116 109.935 199.838 109.951C201.557 109.934 203.276 110.038 204.982 110.262C203.276 110.484 201.557 110.586 199.838 110.567C198.116 110.581 196.395 110.477 194.688 110.256Z" fill="#263238"/>
<path d="M193.051 114.628C195.762 116.753 198.206 119.199 200.328 121.912C198.967 120.858 197.679 119.713 196.472 118.485C195.244 117.279 194.101 115.991 193.051 114.628Z" fill="#263238"/>
<path d="M105.3 284.329C103.956 284.764 65.6845 284.267 64.2477 283.321C63.6941 282.973 63.4391 277.393 63.3271 270.639V270.427C63.3271 269.04 63.2836 267.603 63.2773 266.154C63.2773 265.955 63.2773 265.756 63.2773 265.532L65.1433 245.678L90.7449 245.933L88.2133 265.6V266.378L88.0578 270.446V270.869C88.0578 270.869 102.625 277.611 104.105 278.818C105.586 280.025 106.637 283.906 105.3 284.329Z" fill="#F7A9A0"/>
<path d="M105.3 284.329C103.956 284.764 65.6845 284.266 64.2477 283.321C63.6941 282.973 63.4391 277.393 63.3271 270.638V270.427C63.3271 269.04 63.2836 267.603 63.2773 266.154C63.2773 265.955 63.2773 265.756 63.2773 265.532L88.2071 265.6V266.378L88.0516 270.446V270.869C88.0516 270.869 102.619 277.611 104.099 278.818C105.58 280.024 106.637 283.906 105.3 284.329Z" fill="#EBEBEB"/>
<path d="M105.412 284.422C104.056 284.857 65.4359 284.49 63.9742 283.545C63.4144 283.19 63.1407 277.561 63.0039 270.75L87.8839 270.918C87.8839 270.918 102.607 277.673 104.106 278.88C105.605 280.087 106.762 283.98 105.412 284.422Z" fill="black"/>
<path d="M104.869 282.873C98.4007 282.649 72.2705 282.369 65.8576 282.643C65.8079 282.643 65.8079 282.68 65.8576 282.687C72.2705 283.041 98.3945 283.11 104.869 282.979C105.006 282.973 105.006 282.873 104.869 282.873Z" fill="#263238"/>
<path d="M101.649 277.468C100.93 277.444 100.213 277.568 99.5445 277.834C98.8756 278.099 98.2686 278.5 97.7616 279.011C96.8458 279.928 96.316 281.161 96.2812 282.456C96.2812 282.494 96.3559 282.494 96.3621 282.456C96.5934 281.176 97.2338 280.006 98.1872 279.121C99.1406 278.236 100.355 277.684 101.649 277.549C101.656 277.551 101.663 277.552 101.67 277.552C101.677 277.551 101.684 277.548 101.69 277.544C101.696 277.54 101.7 277.535 101.704 277.529C101.707 277.522 101.709 277.515 101.709 277.508C101.709 277.501 101.707 277.494 101.704 277.488C101.7 277.482 101.696 277.476 101.69 277.472C101.684 277.468 101.677 277.466 101.67 277.465C101.663 277.464 101.656 277.465 101.649 277.468Z" fill="#263238"/>
<path d="M90.4076 271.59C87.8138 271.528 84.8096 272.411 83.1737 274.513C83.1115 274.6 83.2297 274.688 83.3043 274.644C85.5826 273.48 87.9784 272.563 90.4511 271.907C90.4886 271.896 90.5209 271.873 90.5421 271.84C90.5634 271.807 90.5722 271.768 90.5669 271.73C90.5616 271.691 90.5426 271.656 90.5133 271.63C90.4841 271.604 90.4465 271.59 90.4076 271.59Z" fill="#263238"/>
<path d="M92.3998 272.386C89.8123 272.324 86.8018 273.214 85.1659 275.316C85.1037 275.397 85.2219 275.484 85.2965 275.447C87.5739 274.279 89.9698 273.36 92.4433 272.704C92.4807 272.693 92.5131 272.669 92.5343 272.636C92.5556 272.604 92.5644 272.565 92.5591 272.526C92.5538 272.487 92.5348 272.452 92.5055 272.426C92.4762 272.401 92.4387 272.387 92.3998 272.386Z" fill="#263238"/>
<path d="M94.3965 273.182C91.8027 273.126 88.7985 274.009 87.1626 276.112C87.1004 276.193 87.2124 276.286 87.2932 276.242C89.5697 275.08 91.9634 274.162 94.4338 273.506C94.4687 273.492 94.4982 273.468 94.5176 273.436C94.537 273.404 94.5452 273.366 94.541 273.329C94.5367 273.292 94.5201 273.258 94.494 273.231C94.4678 273.204 94.4335 273.187 94.3965 273.182Z" fill="#263238"/>
<path d="M96.4115 273.985C93.824 273.923 90.8135 274.812 89.1776 276.915C89.1154 276.995 89.2336 277.083 89.3083 277.045C91.5717 275.881 93.9529 274.961 96.4115 274.302C96.4482 274.295 96.4812 274.275 96.5049 274.246C96.5287 274.217 96.5416 274.181 96.5416 274.144C96.5416 274.106 96.5287 274.07 96.5049 274.041C96.4812 274.012 96.4482 273.992 96.4115 273.985Z" fill="#263238"/>
<path d="M67.5699 276.51C64.6589 276.51 64.6278 281.007 67.5699 281.026C70.512 281.045 70.4809 276.529 67.5699 276.51Z" fill="white"/>
<path d="M93.302 264.698C92.0021 263.598 90.3351 264.649 89.5203 265.768C88.1411 267.718 87.3001 269.996 87.082 272.374C87.082 272.424 87.1194 272.449 87.1629 272.449C87.1722 272.497 87.193 272.543 87.2235 272.582C87.2541 272.621 87.2935 272.652 87.3385 272.673C87.3836 272.694 87.4329 272.703 87.4824 272.701C87.5319 272.699 87.5802 272.685 87.6232 272.66C89.4892 271.416 91.6226 270.284 93.0408 268.499C93.8618 267.46 94.5087 265.743 93.302 264.698ZM90.0676 270.178C89.172 270.8 88.2452 271.422 87.3744 272.088C87.8065 270.788 88.3048 269.511 88.8672 268.263C89.1504 267.662 89.4725 267.08 89.8313 266.521C90.4035 265.669 92.9413 263.529 93.1963 266.353C93.302 267.908 91.1126 269.413 90.0427 270.178H90.0676Z" fill="#263238"/>
<path d="M80.623 273.27C82.8808 273.637 85.2133 273.021 87.4339 272.697C87.4818 272.685 87.5262 272.661 87.5637 272.629C87.6011 272.596 87.6306 272.556 87.6498 272.51C87.6691 272.464 87.6776 272.415 87.6746 272.365C87.6717 272.316 87.6574 272.268 87.6329 272.225C87.6407 272.218 87.647 272.21 87.6513 272.201C87.6557 272.192 87.6579 272.182 87.6579 272.172C87.6579 272.162 87.6557 272.152 87.6513 272.142C87.647 272.133 87.6407 272.125 87.6329 272.119C85.8807 270.509 83.7354 269.389 81.4129 268.872C80.0507 268.592 78.1163 268.94 77.8986 270.632C77.6809 272.231 79.3106 273.058 80.623 273.27ZM79.0742 271.814C77.345 269.575 80.679 269.426 81.6742 269.668C82.3097 269.832 82.9332 270.04 83.5402 270.29C84.8215 270.8 86.0282 271.478 87.2286 272.106C86.1277 272.2 85.0454 272.386 83.9445 272.517C82.6569 272.654 80.0321 273.015 79.0742 271.814Z" fill="#263238"/>
<path opacity="0.1" d="M83.5361 284.484C73.9387 284.316 64.6771 283.999 63.9742 283.545C63.4144 283.19 63.1407 277.561 63.0039 270.75H66.5493C70.4679 273.96 78.7592 280.634 83.5361 284.484Z" fill="black"/>
<path d="M63.8808 188.48L63.8808 188.48C66.0422 196.982 67.6779 203.518 67.9554 204.98M63.8808 188.48L67.4641 205.073M63.8808 188.48C63.3761 186.498 62.8403 184.409 62.2865 182.25C62.0962 181.508 61.9038 180.758 61.7098 180.001L61.7097 180.001C60.8414 176.622 59.9316 173.113 59.0242 169.614C57.7789 164.812 56.5381 160.027 55.4153 155.619L55.4148 155.617C53.9344 149.913 52.6157 144.845 51.6671 141.203C51.1928 139.382 50.8111 137.918 50.5479 136.909L50.3035 135.972H72.6457L72.6592 136.015C72.7404 136.272 72.8602 136.653 73.0146 137.145C73.3236 138.129 73.7713 139.558 74.3264 141.338C75.4364 144.899 76.9756 149.863 78.692 155.478L78.6921 155.479C81.4907 164.599 84.7551 175.435 87.4113 184.754C90.0738 194.094 92.1086 201.854 92.4697 204.859L92.4698 204.86C92.7625 207.274 92.7103 212.572 92.4591 219.211C92.2086 225.833 91.7626 233.741 91.2791 241.346C90.7956 248.949 90.2748 256.246 89.8749 261.641C89.6749 264.339 89.5052 266.561 89.3854 268.109C89.3256 268.883 89.2782 269.489 89.2458 269.9L89.2324 270.07M63.8808 188.48L89.2324 270.07M67.9554 204.98L67.4641 205.073M67.9554 204.98C67.9552 204.98 67.9551 204.979 67.955 204.979L67.4641 205.073M67.9554 204.98C67.9681 205.047 67.9695 205.122 67.9701 205.166C67.9708 205.223 67.9699 205.293 67.9678 205.374C67.9635 205.535 67.9538 205.753 67.9394 206.021C67.9105 206.559 67.8618 207.311 67.7963 208.246C67.6653 210.116 67.4663 212.725 67.2215 215.822C66.7319 222.016 66.0587 230.169 65.3787 238.286C64.6988 246.403 64.012 254.485 63.4953 260.537C63.2369 263.563 63.021 266.082 62.8697 267.845L62.694 269.89L62.6785 270.07M67.4641 205.073C67.6705 206.141 62.6927 264.074 62.1766 270.07H62.6785M62.6785 270.07L62.6476 270.428L62.6357 270.566L62.6354 270.57M62.6785 270.07H89.2324M89.2324 270.07L89.2087 270.37L89.1992 270.49L89.1968 270.52L89.1962 270.528L89.196 270.53C89.196 270.53 89.196 270.53 89.6944 270.57H62.6354M62.6354 270.57H62.1336H62.6354Z" fill="white" stroke="black"/>
<path d="M88.4719 265.855C84.2609 265.768 85.4676 265.737 81.2567 265.693C79.1979 265.693 65.6631 265.557 63.7349 265.874C63.7234 265.874 63.7123 265.878 63.7042 265.887C63.696 265.895 63.6914 265.906 63.6914 265.917C63.6914 265.929 63.696 265.94 63.7042 265.948C63.7123 265.956 63.7234 265.961 63.7349 265.961C65.6631 266.278 79.1979 266.16 81.2567 266.141C85.4676 266.104 84.2609 266.067 88.4719 265.98C88.4884 265.98 88.5042 265.973 88.5159 265.961C88.5275 265.95 88.5341 265.934 88.5341 265.917C88.5341 265.901 88.5275 265.885 88.5159 265.873C88.5042 265.862 88.4884 265.855 88.4719 265.855Z" fill="#263238"/>
<path d="M72.6483 201.124C71.7464 197.143 70.3904 193.237 69.2148 189.306C66.8263 181.365 64.4234 173.424 62.0058 165.483C60.7992 161.515 59.5883 157.546 58.3734 153.578C57.7597 151.575 57.1377 149.574 56.5074 147.576C55.8854 145.616 55.1949 143.682 54.6414 141.704C54.4174 140.902 54.293 141.343 54.5854 142.363C55.1638 144.416 55.7361 146.475 56.3394 148.527C57.5212 152.591 58.7155 156.651 59.9221 160.706C62.3106 168.78 64.7198 176.847 67.1498 184.908C68.3648 188.955 69.5818 192.998 70.8009 197.037C71.4174 198.962 71.9138 200.923 72.2875 202.909C72.6159 204.984 72.6995 207.09 72.5363 209.185C72.2688 213.402 71.7775 217.613 71.3918 221.818C71.0062 226.022 70.6081 230.252 70.2225 234.463C69.447 242.856 68.6758 251.247 67.9086 259.635C67.8153 260.699 67.722 261.762 67.6412 262.832C67.6412 263.187 68.1512 263.156 68.1885 262.832C69.0966 254.541 69.7933 246.212 70.5708 237.909C71.3483 229.605 72.1258 221.37 72.8971 213.103C73.0899 211.026 73.3138 208.948 73.3138 206.883C73.3087 204.945 73.0855 203.013 72.6483 201.124Z" fill="#263238"/>
<path d="M70.3626 135.459C68.7392 148.005 65.6479 171.535 63.3962 188.59C58.1279 167.94 49.6562 135.459 49.6562 135.459H70.3626Z" fill="#263238"/>
<path d="M76.0974 284.702C74.7601 285.137 36.4885 284.783 35.0454 283.843C34.4919 283.495 34.2182 277.916 34.0813 271.161V270.949C34.0502 269.562 34.0253 268.125 34.0191 266.676C34.0191 266.477 34.0191 266.278 34.0191 266.054C33.932 256.314 34.6411 246.206 34.6411 246.206L59.658 246.368L58.9551 266.035V266.813L58.8183 270.887V271.304C58.8183 271.304 73.342 278.034 74.8223 279.216C76.3027 280.397 77.4409 284.254 76.0974 284.702Z" fill="#F7A9A0"/>
<path d="M76.0978 284.702C74.7605 285.137 36.4889 284.783 35.0458 283.843C34.4923 283.495 34.2186 277.916 34.0817 271.161V270.949C34.0506 269.562 34.0258 268.125 34.0195 266.676C34.0195 266.477 34.0195 266.278 34.0195 266.054H58.9493V266.832L58.8125 270.906V271.323C58.8125 271.323 73.3424 278.034 74.8227 279.216C76.3031 280.398 77.4413 284.254 76.0978 284.702Z" fill="#EBEBEB"/>
<path d="M76.2517 284.621C74.8957 285.056 36.2758 284.689 34.8141 283.744C34.2543 283.389 33.9806 277.76 33.8438 270.949L58.7238 271.117C58.7238 271.117 73.4465 277.872 74.9393 279.079C76.4321 280.285 77.6014 284.179 76.2517 284.621Z" fill="black"/>
<path d="M75.7093 283.072C69.2343 282.848 43.1103 282.568 36.6975 282.842C36.6477 282.842 36.6477 282.879 36.6975 282.879C43.1041 283.24 69.2343 283.308 75.7093 283.178C75.8462 283.171 75.8462 283.072 75.7093 283.072Z" fill="#263238"/>
<path d="M72.489 277.667C71.7697 277.643 71.0531 277.767 70.3841 278.032C69.7152 278.298 69.1083 278.699 68.6015 279.21C67.6835 280.125 67.1534 281.359 67.1211 282.656C67.1211 282.693 67.1957 282.693 67.202 282.656C67.4332 281.375 68.0737 280.205 69.027 279.32C69.9804 278.435 71.1952 277.883 72.489 277.748C72.497 277.745 72.504 277.739 72.5088 277.732C72.5137 277.725 72.5163 277.716 72.5163 277.708C72.5163 277.699 72.5137 277.69 72.5088 277.683C72.504 277.676 72.497 277.67 72.489 277.667Z" fill="#263238"/>
<path d="M61.248 271.814C58.6543 271.758 55.65 272.641 54.0142 274.744C53.952 274.824 54.0639 274.918 54.1448 274.874C56.423 273.711 58.8188 272.793 61.2916 272.137C61.3266 272.124 61.3561 272.099 61.3751 272.066C61.3942 272.034 61.4019 271.996 61.3969 271.959C61.3919 271.921 61.3745 271.887 61.3475 271.861C61.3205 271.834 61.2854 271.818 61.248 271.814Z" fill="#263238"/>
<path d="M63.2396 272.585C60.6521 272.523 57.6416 273.406 56.0058 275.515C55.9436 275.596 56.0617 275.683 56.1364 275.645C58.4137 274.478 60.8097 273.558 63.2832 272.902C63.3206 272.892 63.3529 272.868 63.3742 272.835C63.3955 272.803 63.4043 272.763 63.399 272.725C63.3937 272.686 63.3746 272.651 63.3454 272.625C63.3161 272.6 63.2785 272.585 63.2396 272.585Z" fill="#263238"/>
<path d="M65.2348 273.381C62.6411 273.319 59.6368 274.209 58.001 276.311C57.9325 276.392 58.0507 276.479 58.1316 276.442C60.4065 275.275 62.8005 274.358 65.2721 273.705C65.3071 273.692 65.3366 273.667 65.356 273.635C65.3754 273.603 65.3836 273.566 65.3793 273.529C65.375 273.492 65.3585 273.457 65.3323 273.43C65.3062 273.404 65.2718 273.386 65.2348 273.381Z" fill="#263238"/>
<path d="M67.2279 274.184C64.6342 274.122 61.6299 275.005 59.994 277.113C59.9318 277.194 60.05 277.281 60.1247 277.244C62.4015 276.076 64.7976 275.156 67.2714 274.501C67.3089 274.49 67.3412 274.466 67.3625 274.434C67.3837 274.401 67.3925 274.362 67.3872 274.323C67.3819 274.285 67.3629 274.25 67.3336 274.224C67.3044 274.198 67.2668 274.184 67.2279 274.184Z" fill="#263238"/>
<path d="M38.4097 276.709C35.4988 276.709 35.4677 281.206 38.4097 281.225C41.3518 281.243 41.3207 276.728 38.4097 276.709Z" fill="white"/>
<path d="M64.1158 264.897C62.8096 263.796 61.1489 264.847 60.3278 265.967C58.9582 267.917 58.1259 270.193 57.9145 272.566C57.9133 272.577 57.9147 272.588 57.9184 272.598C57.9222 272.608 57.9282 272.617 57.9361 272.624C57.9439 272.631 57.9534 272.637 57.9637 272.64C57.974 272.643 57.9848 272.643 57.9953 272.641C58.0038 272.69 58.024 272.737 58.0542 272.777C58.0844 272.816 58.1237 272.848 58.1689 272.87C58.214 272.891 58.2636 272.901 58.3136 272.899C58.3635 272.897 58.4122 272.883 58.4556 272.859C60.3216 271.615 62.4551 270.483 63.8732 268.691C64.688 267.646 65.3474 265.936 64.1158 264.897ZM60.8814 270.377C59.9857 270.999 59.0589 271.621 58.1881 272.28C58.6305 270.98 59.1391 269.703 59.712 268.455C59.9953 267.856 60.3174 267.277 60.6761 266.72C61.2484 265.868 63.7861 263.728 64.0412 266.545C64.1407 268.082 61.9512 269.612 60.8814 270.377Z" fill="#263238"/>
<path d="M51.4651 273.468C53.7167 273.835 56.0554 273.213 58.2697 272.896C58.3166 272.884 58.3601 272.861 58.3969 272.83C58.4337 272.799 58.4629 272.759 58.4821 272.715C58.5013 272.67 58.5101 272.622 58.5078 272.574C58.5055 272.525 58.4921 272.478 58.4688 272.436C58.4778 272.429 58.4851 272.421 58.4902 272.411C58.4952 272.402 58.4979 272.391 58.4979 272.38C58.4979 272.369 58.4952 272.358 58.4902 272.348C58.4851 272.339 58.4778 272.33 58.4688 272.324C56.714 270.718 54.5698 269.598 52.2488 269.077C50.8866 268.803 48.9522 269.152 48.7345 270.843C48.5168 272.436 50.1526 273.251 51.4651 273.468ZM49.9163 271.975C48.1871 269.736 51.521 269.593 52.5162 269.836C53.1518 270 53.7753 270.208 54.3822 270.458C55.6396 271 56.8686 271.607 58.0645 272.274C56.9635 272.367 55.8813 272.548 54.7865 272.685C53.4928 272.853 50.8742 273.213 49.9163 271.975Z" fill="#263238"/>
<path d="M68.6674 155.348L68.666 155.353C68.4846 156.001 68.2884 156.635 68.0817 157.251C65.7881 158.197 63.5821 159.343 61.4895 160.676L61.2663 160.818L61.2584 161.083L61.7582 161.098C61.2584 161.083 61.2584 161.083 61.2584 161.083L61.2584 161.083L61.2584 161.085L61.2582 161.09L61.2576 161.109L61.2553 161.186L61.2464 161.489L61.2124 162.644C61.1832 163.644 61.1414 165.081 61.0912 166.832C60.9909 170.333 60.8572 175.088 60.7234 180.105C60.4253 191.287 60.101 203.822 60.1761 206.498C60.2938 211.461 59.9834 227.564 59.6427 242.447C59.4724 249.885 59.2948 257.012 59.1597 262.279C59.0921 264.913 59.0352 267.082 58.9952 268.592C58.9752 269.347 58.9594 269.938 58.9487 270.34L58.9452 270.47L32.4137 270.578L32.4253 270.435L32.5833 268.494C32.7193 266.82 32.9137 264.425 33.147 261.539C33.6135 255.768 34.2355 248.035 34.8575 240.19C36.0999 224.52 37.3471 208.343 37.3471 206.51L37.3471 206.505C37.2913 200.686 38.6766 174.885 39.7534 156.045L39.7535 156.043C40.0644 150.241 40.3629 145.11 40.5837 141.431C40.6941 139.591 40.785 138.113 40.8484 137.096C40.8777 136.626 40.9011 136.254 40.9177 135.99L71.7282 135.96C71.7085 136.279 71.678 136.737 71.6343 137.308C71.5438 138.491 71.3965 140.159 71.1693 142.103C70.7142 145.995 69.9406 150.97 68.6674 155.348Z" fill="white" stroke="black"/>
<path d="M58.4696 266.061C54.2586 265.992 55.4653 265.955 51.2606 265.93C49.1956 265.93 35.6608 265.855 33.7389 266.185C33.7273 266.185 33.7162 266.19 33.7081 266.198C33.6999 266.206 33.6953 266.217 33.6953 266.229C33.6953 266.24 33.6999 266.251 33.7081 266.259C33.7162 266.268 33.7273 266.272 33.7389 266.272C35.6608 266.583 49.2018 266.403 51.2606 266.378C55.4715 266.316 54.2586 266.291 58.4696 266.185C58.4861 266.185 58.5019 266.179 58.5136 266.167C58.5252 266.155 58.5318 266.139 58.5318 266.123C58.5318 266.106 58.5252 266.091 58.5136 266.079C58.5019 266.067 58.4861 266.061 58.4696 266.061Z" fill="#263238"/>
<path d="M42.7461 139.452C42.236 154.828 41.7011 170.204 41.0107 185.568C40.3203 200.931 39.3935 216.406 38.1059 231.782C37.3844 240.378 36.7002 252.47 35.7734 261.016C35.7734 261.072 35.8543 261.097 35.8667 261.016C37.8696 245.765 38.9767 226.912 39.9782 211.561C40.9796 196.21 41.6327 180.847 42.1552 165.483C42.4537 156.775 42.6776 148.067 42.9389 139.396C42.9202 139.328 42.7523 139.328 42.7461 139.452Z" fill="#263238"/>
<path d="M69.6635 156.962C66.9139 158.11 64.2688 159.494 61.7579 161.098C61.7408 161.111 61.729 161.131 61.7246 161.152C61.7202 161.174 61.7234 161.196 61.7338 161.215C61.7442 161.234 61.761 161.249 61.7813 161.258C61.8017 161.266 61.8242 161.266 61.845 161.26C64.5009 159.966 67.2129 158.722 69.8004 157.285C69.8332 157.261 69.857 157.227 69.8678 157.187C69.8787 157.148 69.8759 157.107 69.8601 157.069C69.8442 157.032 69.8162 157.001 69.7805 156.981C69.7449 156.962 69.7036 156.955 69.6635 156.962Z" fill="#263238"/>
<path d="M69.7958 147.483C69.6092 148.459 69.3729 149.429 69.1738 150.406C68.9748 151.382 68.8317 152.272 68.5892 153.155C68.3884 154.028 67.9441 154.826 67.3078 155.457C66.9533 155.786 66.5552 156.079 66.1758 156.39L65.5538 156.881C65.5538 156.75 65.6098 156.62 65.6284 156.483C65.6969 156.11 65.7591 155.743 65.8213 155.369C65.9581 154.542 66.0887 153.715 66.2193 152.881C66.4681 151.252 66.6921 149.61 67.0342 148.005C67.0342 147.937 66.9471 147.912 66.9346 148.005C66.5303 149.597 66.0825 151.171 65.728 152.782C65.5538 153.572 64.938 157.466 64.9131 157.758C64.8883 158.05 64.8572 158.33 64.8509 158.616C64.8101 158.905 64.8101 159.198 64.8509 159.487C64.8509 159.562 64.9505 159.549 64.9816 159.487C65.1026 159.218 65.1864 158.933 65.2304 158.641C65.305 158.368 65.3672 158.081 65.417 157.802C65.417 157.702 65.417 157.596 65.4605 157.491C65.8461 157.26 66.2007 156.949 66.5614 156.688C66.9222 156.427 67.3452 156.135 67.7059 155.83C68.361 155.248 68.8268 154.483 69.0432 153.634C69.2801 152.717 69.4341 151.78 69.5035 150.835C69.6279 149.728 69.715 148.615 69.8705 147.514C69.9078 147.414 69.8083 147.414 69.7958 147.483Z" fill="#263238"/>
<path d="M59.7108 110.138C61.8443 116.563 71.3982 136.989 75.4101 138.42C79.59 139.9 95.7309 141.748 99.3136 138.93C101.068 137.543 101.677 122.758 99.3136 123.131C96.95 123.504 82.7186 124.021 81.0268 123.417C79.3349 122.814 68.0332 106.362 63.4428 102.356C55.5248 95.4833 58.5726 106.673 59.7108 110.138Z" fill="#F7A9A0"/>
<path d="M95.1833 123.381L95.2383 123.381L95.0207 140.786C94.953 140.786 94.8787 140.785 94.7983 140.785C94.3389 140.781 93.6773 140.774 92.8693 140.758C91.2531 140.726 89.0532 140.659 86.7172 140.52C84.3797 140.381 81.9135 140.17 79.7621 139.851C77.591 139.529 75.8058 139.105 74.7859 138.568C74.3239 138.325 73.7468 137.802 73.0764 136.996C72.4142 136.2 71.6922 135.167 70.9332 133.954C69.4156 131.529 67.7721 128.418 66.1886 125.115C63.0197 118.504 60.1168 111.182 58.9612 107.151C58.386 105.145 58.1998 103.61 58.3055 102.531C58.4116 101.448 58.7931 100.938 59.2414 100.749C59.7247 100.544 60.5008 100.611 61.604 101.183C62.6881 101.745 63.9912 102.748 65.4529 104.22C68.3934 107.182 72.0858 111.78 75.1917 115.693C75.4485 116.016 75.7013 116.335 75.9493 116.648C77.1965 118.221 78.3224 119.641 79.2241 120.731C79.7642 121.384 80.2306 121.928 80.5986 122.318C80.7819 122.513 80.9486 122.677 81.0928 122.801C81.1648 122.863 81.2383 122.921 81.3111 122.968C81.3773 123.011 81.4741 123.067 81.5889 123.095C81.7752 123.14 82.1454 123.169 82.5856 123.193C83.0484 123.218 83.6474 123.24 84.3319 123.259C85.7018 123.297 87.4269 123.323 89.1165 123.341C90.8066 123.359 92.4634 123.37 93.6975 123.376C94.3146 123.378 94.8261 123.38 95.1833 123.381Z" fill="white" stroke="black"/>
<path d="M73.6571 112.962C70.2514 113.533 66.9537 114.624 63.8792 116.196L63.3194 116.488C63.1764 116.557 63.0395 116.631 62.9027 116.712C62.629 116.855 62.3615 117.005 62.0941 117.166L61.9759 116.868L62.5419 116.538L62.9524 116.32C63.2075 116.177 63.4687 116.034 63.7299 115.904C65.3088 115.084 66.9548 114.402 68.65 113.863C70.219 113.355 71.8242 112.966 73.4518 112.7L73.6571 112.962ZM77.3517 117.608C77.0583 117.762 76.7573 117.901 76.4498 118.025C75.6553 118.359 74.8179 118.581 73.9618 118.684C73.5264 118.734 73.091 118.808 72.6556 118.833L71.3432 118.871C69.5874 118.823 67.8549 118.456 66.2304 117.788C65.2538 117.409 64.3022 116.949 63.3505 116.488C63.2261 116.439 63.1079 116.376 62.9835 116.32C62.685 116.183 62.3615 116.04 62.0816 115.91L61.7893 115.785L61.5156 115.667L61.6214 115.928C61.6214 116.003 61.6836 116.078 61.7084 116.152H61.7644L62.5668 116.513L62.9276 116.687C63.9601 117.179 64.9988 117.701 66.0811 118.124C67.7491 118.81 69.5279 119.188 71.3308 119.238L72.6743 119.206C73.1221 119.206 73.57 119.101 74.0116 119.051C74.9096 118.947 75.7889 118.719 76.624 118.373C76.9704 118.237 77.3089 118.081 77.6379 117.906L77.3517 117.608ZM70.9825 109.684C69.8186 110.224 68.6868 110.83 67.5926 111.5C65.5339 112.767 63.5826 114.2 61.7582 115.785L61.5903 115.928C61.5903 116.003 61.6525 116.078 61.6773 116.152V116.202C61.6773 116.202 61.6773 116.202 61.7147 116.202C61.8204 116.109 61.9199 116.016 62.0257 115.935C63.8179 114.408 65.7294 113.027 67.7418 111.805C68.8569 111.138 70.0049 110.527 71.1815 109.976L70.9825 109.684Z" fill="white"/>
<path d="M90.9233 131.97C90.9233 130.508 91.029 124.68 91.1596 123.262H91.2032C91.3462 124.667 91.4209 130.421 91.4146 131.883C91.4627 134.789 91.3526 137.696 91.085 140.591C91.0814 140.6 91.0751 140.608 91.0667 140.614C91.0584 140.62 91.0485 140.623 91.0383 140.623C91.0282 140.623 91.0183 140.62 91.0099 140.614C91.0016 140.608 90.9952 140.6 90.9917 140.591C90.774 137.723 90.8922 134.843 90.9233 131.97Z" fill="#263238"/>
<path opacity="0.1" d="M58.4671 107.282C60.7996 115.424 70.1296 136.684 74.5396 139.004C76.6544 140.118 81.5557 140.69 86.0901 140.976L60.1154 100.142C57.8949 99.9055 57.0552 102.313 58.4671 107.282Z" fill="black"/>
<path d="M62.4176 101.508L62.4182 101.509C63.1969 102.968 64.5833 106.618 66.229 111.333C67.8684 116.029 69.7502 121.739 71.5178 127.281C73.2854 132.824 74.9377 138.198 76.1183 142.223C76.7087 144.236 77.1801 145.909 77.4887 147.095C77.6433 147.689 77.7552 148.155 77.8209 148.478C77.8266 148.506 77.832 148.533 77.8368 148.558C77.8213 148.56 77.8053 148.563 77.7888 148.565C77.4842 148.608 77.0407 148.66 76.4741 148.719C75.3428 148.837 73.7416 148.981 71.8252 149.141C67.9936 149.461 62.9136 149.845 57.8395 150.212C52.7657 150.579 47.6994 150.928 43.8955 151.18C41.9935 151.306 40.4078 151.408 39.295 151.474C38.7446 151.507 38.3113 151.532 38.013 151.547C38.0132 151.543 38.0133 151.539 38.0135 151.536C38.0281 151.239 38.0699 150.811 38.1368 150.262C38.2704 149.169 38.4989 147.639 38.7888 145.809C39.098 143.857 39.4748 141.578 39.8781 139.139C40.232 136.998 40.6064 134.734 40.9734 132.46L40.9734 132.459C41.4424 129.538 42.7973 123.177 44.8396 116.794C45.8605 113.603 47.0499 110.417 48.3816 107.656C49.7172 104.887 51.1781 102.585 52.7274 101.128L52.7277 101.128C53.8765 100.045 55.9918 99.5357 58.0533 99.6428C59.0709 99.6957 60.0361 99.8978 60.8157 100.229C61.6022 100.562 62.151 101.005 62.4176 101.508Z" fill="white" stroke="black"/>
<path d="M76.2122 140.784L75.0802 140.118C73.5544 139.229 71.9827 138.422 70.3717 137.698L69.4884 137.313L69.0592 137.139C67.8697 136.647 66.6502 136.232 65.4081 135.895C63.7106 135.421 61.9713 135.113 60.2144 134.974C56.6889 134.821 53.1611 135.22 49.7586 136.156L49.1366 136.33C48.9811 136.367 48.8318 136.411 48.6825 136.461C46.3118 137.185 44.008 138.114 41.797 139.235C41.175 139.527 40.553 139.857 39.9807 140.162L39.7941 140.261L39.1099 140.628L39.1659 140.311L39.8688 139.95C40.5654 139.571 41.2683 139.204 41.9774 138.862C42.562 138.563 43.1592 138.283 43.7563 138.016C45.2583 137.327 46.7993 136.727 48.3715 136.218L48.8256 136.087C49.1055 135.994 49.3854 135.913 49.6715 135.839C51.385 135.357 53.1375 135.026 54.9087 134.85C56.6767 134.658 58.4575 134.612 60.2331 134.713C63.356 134.98 66.4158 135.746 69.2956 136.983L69.7186 137.17L70.4587 137.499C72.0722 138.243 73.644 139.073 75.1673 139.987L76.1376 140.56L76.2122 140.784ZM74.1223 133.942C73.0898 134.564 72.0822 135.186 71.0807 135.845C70.4587 136.23 69.8927 136.622 69.2956 137.002L69.0592 137.157C68.2444 137.68 67.4172 138.184 66.5712 138.656C65.0568 139.541 63.4073 140.172 61.6885 140.522C60.8301 140.687 59.9529 140.731 59.0824 140.653C58.647 140.609 58.2053 140.597 57.7762 140.535L56.4824 140.305C54.774 139.896 53.1536 139.181 51.6992 138.196C50.8222 137.624 49.9887 136.952 49.1428 136.33L48.8194 136.087C48.5581 135.888 48.2907 135.689 48.0232 135.503L47.7682 135.316L47.395 135.061C45.9133 134.006 44.1557 133.407 42.3381 133.338C41.621 133.352 40.9125 133.497 40.2482 133.767L40.1922 134.103C40.8709 133.821 41.5968 133.669 42.3319 133.655C44.0834 133.74 45.772 134.334 47.1897 135.366L47.4074 135.515L47.6624 135.696C47.8988 135.864 48.1352 136.038 48.3653 136.218L48.6887 136.461C49.6031 137.157 50.5112 137.879 51.4877 138.513C52.9771 139.525 54.6378 140.259 56.3891 140.678L57.7202 140.92C58.1618 140.983 58.6096 141.001 59.0575 141.045C59.9591 141.123 60.8671 141.079 61.757 140.914C63.511 140.551 65.1925 139.9 66.733 138.986C67.6597 138.463 68.5616 137.897 69.4511 137.313L69.6812 137.17L71.2487 136.143C72.219 135.521 73.2018 134.899 74.197 134.277L74.1223 133.942ZM73.4381 131.74C72.3578 131.391 71.2594 131.1 70.1477 130.869C68.3979 130.515 66.6147 130.352 64.8296 130.384C63.0442 130.417 61.2649 130.605 59.5115 130.943C57.7593 131.274 56.0354 131.74 54.3552 132.337C52.0828 133.153 49.8818 134.156 47.7744 135.335C47.65 135.397 47.5318 135.465 47.4136 135.534C46.5304 136.025 45.6658 136.535 44.8075 137.064C43.8558 137.649 42.9104 138.252 41.9774 138.862C41.2496 139.328 40.5281 139.807 39.8066 140.28L39.1099 140.734C39.1099 140.833 39.0788 140.927 39.0664 141.02C39.987 140.435 40.8951 139.838 41.8094 139.253C42.4314 138.837 43.1032 138.42 43.7563 138.009C44.1481 137.761 44.54 137.518 44.9381 137.282C45.8338 136.741 46.7481 136.212 47.6687 135.708L48.0294 135.515C50.094 134.385 52.247 133.424 54.4671 132.642C57.7994 131.455 61.2945 130.788 64.8296 130.664C66.5968 130.623 68.3631 130.773 70.098 131.111C71.2564 131.345 72.4007 131.644 73.5252 132.007C73.4941 131.901 73.463 131.808 73.4381 131.721V131.74Z" fill="white"/>
<path d="M46.9604 105.429C36.2434 117.247 24.1579 137.219 29.3267 141.505C34.0539 145.399 51.2958 141.692 62.1372 137.456C64.2023 136.647 55.8302 118.398 53.7278 119.48C51.5142 120.658 49.2291 121.697 46.8858 122.59C46.2638 122.752 49.548 118.771 53.1804 109.204C56.8502 99.4328 53.0871 98.6678 46.9604 105.429Z" fill="white"/>
<path d="M74.5804 120.222C75.2392 120.652 75.7281 121.296 75.9636 122.046C76.0835 122.551 75.7922 123.086 75.3038 123.58C75.072 123.814 74.8259 124.008 74.6356 124.144C74.5411 124.212 74.462 124.264 74.4075 124.298C74.3804 124.316 74.3595 124.328 74.346 124.337L74.3315 124.345L74.3292 124.347L74.329 124.347L74.3288 124.347L74.3286 124.347L73.7667 124.672L74.2254 125.132C74.8303 125.739 75.2428 126.511 75.4113 127.351C75.4836 127.886 75.15 128.526 74.6687 129.114C74.4398 129.393 74.2025 129.63 74.0215 129.798C73.9314 129.881 73.8563 129.947 73.8045 129.991C73.7787 130.013 73.7587 130.029 73.7457 130.04L73.7316 130.051L73.7288 130.053L73.7287 130.053L73.7286 130.053L73.7285 130.054L73.7284 130.054L73.4663 130.26L73.5573 130.582C73.8003 131.441 73.7277 132.358 73.353 133.168C72.8345 134.167 71.6751 134.742 70.1785 135.12C69.4419 135.306 68.6589 135.436 67.8866 135.554C67.7323 135.577 67.5779 135.6 67.4243 135.623C66.8186 135.713 66.2251 135.802 65.6977 135.908L65.6977 135.908L65.6843 135.911C62.9528 136.543 60.2737 137.381 57.6699 138.419L53.0998 120.275C53.1487 120.246 53.2028 120.215 53.2619 120.18C53.5726 120 54.0204 119.742 54.5675 119.432C55.6622 118.813 57.1529 117.99 58.7393 117.172C60.3274 116.353 62.0032 115.544 63.4698 114.95C64.2034 114.653 64.8766 114.413 65.4555 114.252C66.0404 114.09 66.4924 114.019 66.8006 114.033C68.1028 114.123 71.3748 114.45 74.314 115.153C75.7897 115.506 77.148 115.946 78.127 116.48C79.1403 117.034 79.5693 117.586 79.5718 118.1C79.5715 118.375 79.4206 118.607 79.0223 118.818C78.6135 119.035 78.0328 119.173 77.4013 119.25C76.7792 119.327 76.1512 119.341 75.6747 119.335C75.4375 119.333 75.2401 119.325 75.1028 119.318C75.0342 119.314 74.9808 119.311 74.9449 119.309L74.9048 119.306L74.8952 119.305L74.8932 119.305L74.893 119.305L74.8929 119.305C74.8929 119.305 74.8929 119.305 74.8929 119.306L74.5804 120.222Z" fill="white" stroke="black"/>
<path d="M74.8068 119.741C72.0327 118.933 69.072 118.796 66.217 118.69C66.1548 118.69 66.1486 118.783 66.217 118.789C69.0657 118.858 71.958 119.691 74.7881 119.878C74.8063 119.88 74.8247 119.876 74.8393 119.865C74.8538 119.853 74.8634 119.837 74.8659 119.819C74.8684 119.801 74.8635 119.782 74.8524 119.768C74.8414 119.753 74.8249 119.744 74.8068 119.741Z" fill="#263238"/>
<path d="M74.4835 124.587C73.8359 124.465 73.175 124.429 72.518 124.481C71.8213 124.481 71.1247 124.512 70.4281 124.543C69.0306 124.605 67.6374 124.705 66.2482 124.842C66.186 124.842 66.1798 124.941 66.2482 124.941C67.6415 124.879 69.0348 124.836 70.4218 124.829H72.5118C73.1692 124.883 73.8307 124.862 74.4835 124.767C74.5007 124.759 74.5152 124.746 74.5254 124.73C74.5355 124.714 74.541 124.696 74.541 124.677C74.541 124.658 74.5355 124.639 74.5254 124.623C74.5152 124.607 74.5007 124.595 74.4835 124.587Z" fill="#263238"/>
<path d="M73.938 130.502C73.3515 130.399 72.7517 130.399 72.1652 130.502L70.2868 130.62C69.0428 130.688 67.7428 130.763 66.4677 130.788C66.4545 130.788 66.4419 130.793 66.4325 130.803C66.4232 130.812 66.418 130.825 66.418 130.838C66.418 130.851 66.4232 130.864 66.4325 130.873C66.4419 130.882 66.4545 130.887 66.4677 130.887C67.7615 130.887 69.0552 130.887 70.349 130.831L72.2523 130.776C72.8323 130.811 73.4138 130.741 73.969 130.57C73.9781 130.566 73.9852 130.559 73.9887 130.549C73.9922 130.54 73.9918 130.53 73.9877 130.52C73.9836 130.511 73.976 130.504 73.9667 130.501C73.9574 130.497 73.947 130.498 73.938 130.502Z" fill="#263238"/>
<path d="M51.981 119.878L56.1111 140.404C56.1111 140.404 30.4412 147.103 27.779 140.609C25.1168 134.116 40.219 110.001 48.927 103.121C57.635 96.2421 54.3633 107.077 54.0958 107.948C52.9202 111.798 47.4466 121.837 47.4466 121.837L51.981 119.878Z" fill="black"/>
<path d="M51.6115 120.578L47.6354 122.266L46.3193 122.825L47.0003 121.568L47.0075 121.555C47.1399 121.311 48.448 118.897 49.8864 116.063L49.8889 116.058L49.889 116.058L49.9616 115.919L50.0032 115.835L50.1401 115.562L50.1425 115.557L50.1425 115.557C51.3014 113.301 52.4439 110.854 53.1508 109.047L53.1536 109.04L53.1536 109.04C53.1869 108.959 53.2105 108.897 53.2354 108.832C53.256 108.778 53.2774 108.722 53.3058 108.65C53.4269 108.329 53.5276 108.038 53.6034 107.782L53.6049 107.776L53.6049 107.776C53.6699 107.565 53.9191 106.743 54.1226 105.735C54.3286 104.716 54.4765 103.56 54.3679 102.664C54.3137 102.216 54.2007 101.882 54.0426 101.665C53.9001 101.469 53.7069 101.346 53.3992 101.325C53.0646 101.302 52.5703 101.401 51.8654 101.743C51.1677 102.081 50.3002 102.639 49.2314 103.483C46.5391 105.781 44.1115 108.372 41.9938 111.208L41.9879 111.216L41.9878 111.216L41.7713 111.494C41.7711 111.494 41.771 111.495 41.7708 111.495C39.6549 114.238 37.6801 117.086 35.854 120.03L35.8497 120.037L35.8452 120.043C35.8056 120.103 35.78 120.142 35.7605 120.177L35.7538 120.189L35.7465 120.2L35.6428 120.365L35.6408 120.368L35.5627 120.494C35.5626 120.495 35.5625 120.495 35.5624 120.495C33.0316 124.612 30.851 128.797 29.4826 132.376C28.7981 134.166 28.3224 135.791 28.104 137.17C27.8837 138.561 27.9347 139.646 28.2412 140.395L51.6115 120.578ZM51.6115 120.578L55.5265 140.011C55.3561 140.054 55.1408 140.107 54.8852 140.168C54.1815 140.338 53.1724 140.573 51.953 140.836C49.5128 141.36 46.2358 141.992 42.8795 142.421C39.5167 142.851 36.1032 143.074 33.3795 142.795C32.017 142.655 30.856 142.392 29.9685 141.985C29.084 141.58 28.5105 141.052 28.2413 140.395L51.6115 120.578Z" fill="white" stroke="black"/>
<path d="M50.5881 115.785L50.4512 116.059C50.4512 116.059 50.4512 116.121 50.4077 116.146L50.0967 116.345L47.5652 117.994C46.0794 118.972 44.5268 119.845 42.9188 120.606C42.1048 120.981 41.2515 121.265 40.3748 121.452C39.4873 121.659 38.5613 121.631 37.6878 121.371C37.4701 121.309 37.2462 121.259 37.0658 121.191L36.4438 120.923C36.0304 120.747 35.6311 120.539 35.2495 120.301L35.1562 120.245L35.2371 120.115L35.3428 119.947C35.3709 119.973 35.4022 119.996 35.4362 120.015L35.5232 120.065C35.8585 120.286 36.2123 120.477 36.5806 120.637L37.2026 120.898L37.8246 121.079C38.6521 121.331 39.5311 121.363 40.3748 121.172C41.2312 120.994 42.0655 120.723 42.8628 120.363C44.4599 119.62 46.004 118.768 47.4843 117.813L49.5058 116.519L50.0345 116.177L50.5881 115.785ZM49.9661 116.165C46.7752 116.942 43.6466 117.931 40.4619 118.709C38.795 119.126 37.1031 119.493 35.405 119.766C35.3677 119.822 35.3304 119.878 35.2993 119.934L35.1936 120.102L35.4797 120.052C37.1778 119.766 38.8634 119.387 40.5303 118.964C43.5222 118.211 46.458 117.278 49.4374 116.507L50.0594 116.345C50.134 116.345 50.2149 116.302 50.2957 116.289L50.3704 116.146C50.3704 116.146 50.3704 116.09 50.4139 116.059L49.9661 116.165ZM50.1713 110.996C49.3972 111.413 48.5874 111.761 47.7517 112.035C46.9323 112.314 46.0647 112.424 45.2015 112.358C43.8919 112.174 42.6458 111.677 41.5691 110.909L41.3514 111.189C42.484 111.984 43.7921 112.494 45.1642 112.675C46.0731 112.741 46.9859 112.618 47.845 112.315C48.7063 112.035 49.5393 111.675 50.333 111.239C51.4633 110.625 52.5615 109.955 53.6234 109.23C53.6794 109.093 53.7292 108.956 53.7789 108.832C52.6231 109.615 51.4272 110.337 50.1962 110.996H50.1713Z" fill="white"/>
<path d="M51.5393 119.897C48.591 120.929 40.8658 124.786 39.1677 126.366C39.1605 126.375 39.1564 126.387 39.1563 126.399C39.1561 126.411 39.1597 126.423 39.1667 126.432C39.1736 126.442 39.1835 126.449 39.1949 126.453C39.2063 126.457 39.2186 126.457 39.2299 126.453C40.8969 125.277 50.4259 120.606 51.9374 120.034C51.9374 120.034 52.012 120.214 52.0431 120.264C52.0742 120.314 52.1302 120.295 52.1302 120.227C52.1038 120.058 52.0664 119.892 52.0183 119.729L51.5393 119.897Z" fill="#263238"/>
<path d="M49.3451 131.366C49.0652 129.936 47.9953 124.201 47.8398 122.758C47.8398 122.758 47.8398 122.727 47.8772 122.758C48.3001 124.101 49.5192 129.731 49.8054 131.161C50.4382 134.006 50.9137 136.884 51.2297 139.782C51.2297 139.832 51.1551 139.863 51.1364 139.782C50.3838 137.033 49.8924 134.184 49.3451 131.366Z" fill="#263238"/>
<path d="M47.2367 121.912C48.0391 120.164 49.0218 118.504 49.9051 116.799C50.7883 115.095 51.7026 113.403 52.5237 111.68H52.561C52.0634 112.856 51.5658 114.031 51.0309 115.188C51.1926 115.008 51.3419 114.815 51.4912 114.622C51.7648 114.274 52.0136 113.907 52.2624 113.54C52.2624 113.54 52.306 113.54 52.2998 113.54C52.1061 113.952 51.8661 114.34 51.5845 114.697C51.3763 114.965 51.1475 115.217 50.9003 115.449C50.6826 115.922 50.4524 116.395 50.2161 116.861C49.4502 118.598 48.554 120.274 47.5352 121.875C47.4979 121.993 47.2056 121.993 47.2367 121.912Z" fill="#263238"/>
<path d="M38.7122 143.271C41.7413 143.234 53.1799 140.989 56.01 140.404C55.9727 140.105 56.01 140 55.9353 139.577C55.9353 139.521 56.0162 139.496 56.0286 139.577C56.1033 139.981 56.377 140.783 56.265 140.821C54.9028 141.356 41.6853 143.663 38.7122 143.414C38.7028 143.414 38.6935 143.413 38.6848 143.409C38.6761 143.405 38.6682 143.4 38.6616 143.393C38.6549 143.387 38.6497 143.379 38.6461 143.37C38.6425 143.362 38.6406 143.352 38.6406 143.343C38.6406 143.333 38.6425 143.324 38.6461 143.315C38.6497 143.307 38.6549 143.299 38.6616 143.292C38.6682 143.286 38.6761 143.28 38.6848 143.277C38.6935 143.273 38.7028 143.271 38.7122 143.271Z" fill="#263238"/>
<path d="M69.5156 141.2L90.8129 144.068L98.8927 114.467L77.5954 111.605L69.5156 141.2Z" fill="#263238"/>
<path d="M99.3045 115.029L91.4904 143.65L71.1992 140.918L79.0133 112.296L99.3045 115.029Z" fill="white" stroke="black"/>
<path d="M88.2247 127.031C88.0916 127.584 87.7606 128.069 87.2941 128.395C86.8277 128.72 86.2581 128.864 85.6931 128.798C85.4266 128.769 85.1693 128.684 84.9387 128.548C84.7081 128.411 84.5096 128.226 84.3567 128.006C84.2038 127.786 84.1002 127.536 84.0528 127.272C84.0054 127.008 84.0154 126.737 84.0822 126.478C84.2151 125.924 84.5459 125.438 85.0122 125.112C85.4785 124.785 86.0481 124.641 86.6137 124.705C86.8809 124.733 87.1389 124.818 87.3701 124.955C87.6012 125.092 87.8001 125.277 87.953 125.498C88.106 125.719 88.2094 125.971 88.2563 126.235C88.3032 126.5 88.2924 126.771 88.2247 127.031Z" fill="black"/>
<path d="M100.738 140.426C100.874 140.926 100.902 141.465 100.66 141.892C100.56 142.066 100.345 142.255 99.9623 142.425C99.5848 142.593 99.088 142.722 98.4966 142.803C97.3149 142.965 95.8274 142.925 94.3299 142.68C92.8319 142.435 91.3558 141.99 90.1888 141.365C89.0103 140.733 88.2214 139.958 87.957 139.089L87.9571 139.089L87.9552 139.083C87.8295 138.687 87.9013 138.521 87.9489 138.452C88.0113 138.362 88.1471 138.273 88.3904 138.215C88.6253 138.159 88.8911 138.15 89.1109 138.157C89.2181 138.161 89.3086 138.169 89.3713 138.175C89.4026 138.178 89.4266 138.181 89.4421 138.184L89.4585 138.186L89.4607 138.186L89.461 138.186C89.461 138.186 89.461 138.186 89.4612 138.184L89.7283 137.231C89.7289 137.23 89.7289 137.23 89.7289 137.23L89.7287 137.23L89.728 137.23L89.7222 137.227L89.6957 137.216C89.6716 137.205 89.6352 137.189 89.5883 137.168C89.4944 137.125 89.3587 137.06 89.1957 136.975C88.8683 136.805 88.4375 136.557 88.0153 136.245C87.1284 135.59 86.4628 134.79 86.528 133.942C86.5602 133.523 86.7313 133.28 86.9567 133.118C87.2035 132.94 87.5507 132.837 87.947 132.793C88.3371 132.75 88.7314 132.77 89.0342 132.802C89.184 132.818 89.308 132.837 89.3933 132.852C89.4359 132.859 89.4687 132.865 89.4901 132.869L89.5133 132.874L89.518 132.875L89.518 132.875L89.5183 132.875C89.5182 132.875 89.5182 132.875 89.5187 132.873L89.8191 131.928C89.8199 131.926 89.8199 131.926 89.8199 131.926L89.8197 131.926L89.8193 131.926L89.814 131.924L89.7891 131.913C89.7664 131.902 89.7319 131.887 89.6873 131.865C89.5982 131.823 89.4695 131.759 89.3157 131.676C89.0063 131.507 88.6031 131.262 88.2168 130.952C87.4113 130.306 86.8404 129.515 87.0059 128.642C87.0904 128.195 87.2946 127.964 87.5318 127.829C87.7919 127.68 88.1416 127.621 88.5351 127.63C88.9228 127.638 89.3079 127.712 89.6024 127.787C89.748 127.824 89.8678 127.86 89.9501 127.887C89.9912 127.9 90.0227 127.911 90.0431 127.918L90.0653 127.926L90.0698 127.928L90.0699 127.928L90.07 127.928C90.07 127.928 90.07 127.928 90.0705 127.927L90.5634 127.075C90.5642 127.074 90.5643 127.074 90.5643 127.074L90.5641 127.074L90.5614 127.072L90.5466 127.059C90.5328 127.047 90.5117 127.029 90.4844 127.004C90.4297 126.955 90.3507 126.882 90.2574 126.788C90.0696 126.6 89.8294 126.335 89.6127 126.024C89.1597 125.373 88.9058 124.668 89.1649 124.046C89.2849 123.764 89.4267 123.604 89.566 123.511C89.706 123.417 89.8817 123.364 90.1116 123.358C90.5984 123.346 91.2292 123.546 91.989 123.867C92.2981 123.997 92.6136 124.141 92.9378 124.288C93.0035 124.318 93.0694 124.348 93.1358 124.378C93.5262 124.555 93.9272 124.734 94.3223 124.889C95.0942 125.19 95.9246 125.431 96.676 125.331L96.9509 125.294L97.0652 125.041L98.6957 121.435L99.4117 121.287C99.8 122.235 100.375 123.264 100.924 124.248C101.066 124.501 101.205 124.75 101.339 124.995C101.713 125.676 102.051 126.323 102.297 126.916C102.545 127.515 102.683 128.017 102.69 128.415L102.691 128.423L102.691 128.432C102.711 128.809 102.609 129.182 102.4 129.497C102.192 129.812 101.888 130.052 101.533 130.181L100.568 130.532L101.438 131.075L101.438 131.075L101.439 131.075L101.439 131.075L101.439 131.075L101.44 131.075L101.45 131.082C101.46 131.089 101.476 131.099 101.497 131.114C101.539 131.144 101.602 131.19 101.678 131.25C101.83 131.373 102.028 131.551 102.217 131.777C102.599 132.234 102.897 132.827 102.784 133.518L102.784 133.518L102.782 133.529C102.769 133.626 102.711 133.747 102.582 133.889C102.455 134.03 102.284 134.163 102.098 134.282C101.915 134.399 101.732 134.492 101.595 134.556C101.526 134.588 101.47 134.612 101.432 134.627C101.413 134.635 101.399 134.641 101.39 134.645L101.38 134.648L101.379 134.649L101.379 134.649L101.379 134.649L101.378 134.649L101.378 134.649L100.496 134.98L101.266 135.525C101.593 135.757 101.85 136.074 102.008 136.443C102.164 136.807 102.217 137.206 102.163 137.598C102.069 138.019 101.751 138.332 101.387 138.557C101.208 138.667 101.034 138.746 100.904 138.796C100.84 138.821 100.788 138.839 100.754 138.85C100.736 138.856 100.724 138.86 100.716 138.862L100.71 138.864L100.709 138.864L100.709 138.864L100.709 138.864L100.709 138.864L100.708 138.864L100.077 139.033L100.407 139.598L100.407 139.598L100.407 139.598L100.407 139.598L100.407 139.599L100.408 139.599L100.413 139.608C100.415 139.612 100.418 139.618 100.422 139.626C100.426 139.633 100.43 139.641 100.435 139.65C100.456 139.689 100.485 139.748 100.52 139.822C100.588 139.973 100.673 140.184 100.738 140.426Z" fill="white" stroke="black"/>
<path d="M103.364 116.992L103.364 116.992C103.419 117.484 103.302 118.013 103.067 118.6C102.853 119.133 102.558 119.673 102.246 120.245C102.213 120.306 102.18 120.367 102.146 120.429C101.806 121.055 101.453 121.721 101.231 122.392C101.065 122.892 100.964 123.415 100.997 123.949L98.502 124.172L98.8056 121.084C99.4202 118.913 100.651 117.206 101.717 116.437C102.27 116.038 102.666 115.97 102.876 116.032C103.03 116.076 103.281 116.259 103.364 116.992Z" fill="white" stroke="black"/>
<path d="M100.61 139.446C100.618 139.446 100.626 139.45 100.632 139.455C100.637 139.461 100.641 139.469 100.641 139.477C100.641 139.486 100.637 139.494 100.632 139.499C100.626 139.505 100.618 139.509 100.61 139.509C96.7792 140.047 92.8754 139.412 89.4136 137.686C89.3016 137.63 89.3514 137.425 89.482 137.468C93.0756 138.664 96.8241 139.331 100.61 139.446Z" fill="#263238"/>
<path d="M101.606 135.142C101.65 135.142 101.65 135.217 101.606 135.223C97.3701 135.785 93.0727 134.814 89.4896 132.486C89.3652 132.399 89.3403 132.2 89.4896 132.287C91.9962 133.73 98.0483 135.086 101.606 135.142Z" fill="#263238"/>
<path d="M90.0092 127.199C93.536 129.444 97.4235 130.309 101.547 130.676C101.597 130.676 101.591 130.757 101.547 130.763C99.4823 131.149 96.8761 130.657 94.8857 130.104C93.0221 129.627 91.3167 128.668 89.9408 127.323C89.8786 127.267 89.9346 127.149 90.0092 127.199Z" fill="#263238"/>
<path d="M63.613 102.854C63.6876 104.72 63.7436 108.956 60.87 108.639C59.715 108.409 58.6504 107.852 57.8035 107.034C56.897 106.281 56.0771 105.43 55.3591 104.496C54.5354 103.481 53.7949 102.402 53.1448 101.268C53.1448 101.224 53.0452 101.268 53.0763 101.318C53.7357 102.456 54.283 103.631 55.0543 104.708C55.7826 105.751 56.6488 106.69 57.6294 107.5C58.5503 108.356 59.712 108.907 60.9571 109.08C61.491 109.118 62.0215 108.969 62.4582 108.66C62.8948 108.35 63.2106 107.898 63.3518 107.382C63.7765 105.911 63.8658 104.364 63.613 102.854Z" fill="#263238"/>
<path d="M56.5357 92.8203L63.7312 95.7235C63.0848 97.2522 62.6084 98.8478 62.3109 100.482L62.3072 100.502L62.3052 100.523C62.2845 100.735 62.2837 100.948 62.3028 101.161V101.161V101.161V101.161V101.161V101.162V101.162V101.162V101.162V101.162V101.163V101.163V101.163V101.163V101.163V101.164V101.164V101.164V101.164V101.165V101.165V101.165V101.165V101.165V101.166V101.166V101.166V101.166V101.166V101.167V101.167V101.167V101.167V101.168V101.168V101.168V101.168V101.168V101.169V101.169V101.169V101.169V101.17V101.17V101.17V101.17V101.17V101.171V101.171V101.171V101.171V101.172V101.172V101.172V101.172V101.173V101.173V101.173V101.173V101.173V101.174V101.174V101.174V101.174V101.175V101.175V101.175V101.175V101.176V101.176V101.176V101.176V101.176V101.177V101.177V101.177V101.177V101.178V101.178V101.178V101.178V101.179V101.179V101.179V101.179V101.179V101.18V101.18V101.18V101.18V101.181V101.181V101.181V101.181V101.182V101.182V101.182V101.182V101.183V101.183V101.183V101.183V101.184V101.184V101.184V101.184V101.185V101.185V101.185V101.185V101.185V101.186V101.186V101.186V101.186V101.187V101.187V101.187V101.187V101.188V101.188V101.188V101.188V101.189V101.189V101.189V101.189V101.19V101.19V101.19V101.19V101.191V101.191V101.191V101.191V101.192V101.192V101.192V101.192V101.193V101.193V101.193V101.193V101.193V101.194V101.194V101.194V101.194V101.195V101.195V101.195V101.195V101.196V101.196V101.196V101.196V101.197V101.197V101.197V101.197V101.198V101.198V101.198V101.198V101.199V101.199V101.199V101.199V101.2V101.2V101.2V101.2V101.2V101.201V101.201V101.201V101.201V101.202V101.202V101.202V101.202V101.203V101.203V101.203V101.203V101.204V101.204V101.204V101.204V101.205V101.205V101.205V101.205V101.206V101.206V101.206V101.206V101.206V101.207V101.207V101.207V101.207V101.208V101.208V101.208V101.208V101.209V101.209V101.209V101.209V101.21V101.21V101.21V101.21V101.21V101.211V101.211V101.211V101.211V101.212V101.212V101.212V101.212V101.213V101.213V101.213V101.213V101.213V101.214V101.214V101.214V101.214V101.215V101.215V101.215V101.215V101.215V101.216V101.216V101.216V101.216V101.217V101.217V101.217V101.217V101.217V101.218V101.218V101.218V101.218V101.219V101.219V101.219V101.219V101.219V101.22V101.22V101.22V101.22V101.22V101.221V101.221V101.221V101.221V101.222V101.222V101.222V101.222V101.222V101.223V101.223V101.223V101.223V101.223V101.224V101.224V101.224V101.224V101.224V101.225V101.225V101.225V101.225V101.225V101.226V101.226V101.226V101.226V101.226V101.227V101.227V101.227V101.227V101.227V101.228V101.228V101.228V101.228V101.228V101.229V101.229V101.229V101.229V101.229V101.229V101.23V101.23V101.23V101.23V101.23V101.231H62.3027L62.3029 101.239C62.3121 101.775 62.3062 103.069 62.0608 104.239C61.9375 104.826 61.7616 105.342 61.5244 105.71C61.2928 106.07 61.0361 106.242 60.7381 106.268C60.3749 106.3 59.8847 106.152 59.2949 105.791C58.7166 105.438 58.0994 104.914 57.5021 104.29C56.3436 103.081 55.3205 101.559 54.8304 100.331C55.084 99.0113 55.4013 97.7041 55.7811 96.4145L55.7846 96.4027L55.7875 96.3907C56.0602 95.2626 56.3238 94.0159 56.5357 92.8203Z" fill="white" stroke="black"/>
<path d="M62.7775 101.137C62.7806 101.168 62.7806 101.199 62.7775 101.23C62.4816 101.229 62.1863 101.204 61.8942 101.156C56.9555 100.316 56.6756 94.0899 56.7005 92.3545L58.7656 93.1818L64.3636 95.4521C63.6275 97.0871 63.0948 98.8063 62.7775 100.571C62.7594 100.759 62.7594 100.949 62.7775 101.137Z" fill="#263238"/>
<path d="M58.7393 96.2301L58.739 96.2299C58.276 95.8315 57.7799 95.0163 57.3133 93.8884C56.8546 92.7794 56.4503 91.4327 56.1392 90.0404C55.8283 88.6488 55.6132 87.2242 55.5285 85.9619C55.4429 84.6878 55.4934 83.6229 55.6853 82.9276C56.2634 80.8371 57.9898 79.2957 60.0423 78.5804C62.0981 77.864 64.3917 78.0075 66.0566 79.1733L66.0576 79.174C66.2881 79.3346 66.5575 79.6381 66.8461 80.0991C67.1304 80.5532 67.4142 81.1291 67.6857 81.7987C68.2284 83.1377 68.7071 84.8154 69.0408 86.5625C69.3746 88.3098 69.56 90.1091 69.5251 91.6911C69.4898 93.2901 69.2304 94.5977 68.7336 95.4166L68.7334 95.4169C67.6598 97.19 65.9424 98.045 64.0981 98.1365C62.2421 98.2285 60.264 97.5437 58.7393 96.2301Z" fill="white" stroke="black"/>
<path d="M63.8923 88.355C63.8923 88.355 63.855 88.3923 63.8923 88.4172C64.0292 89.0081 64.0913 89.7109 63.5938 90.0157C63.5938 90.0157 63.5938 90.053 63.5938 90.0468C64.2095 89.8229 64.1225 88.8961 63.8923 88.355Z" fill="#263238"/>
<path d="M63.2405 87.845C62.2702 87.9694 62.6185 89.8976 63.4831 89.7857C64.3476 89.6737 64.0677 87.7455 63.2405 87.845Z" fill="#263238"/>
<path d="M67.2705 87.7021C67.2705 87.7021 67.3265 87.7021 67.3265 87.7519C67.4074 88.3739 67.6002 89.027 68.1724 89.139V89.1701C67.4944 89.1701 67.2519 88.2744 67.2705 87.7021Z" fill="#263238"/>
<path d="M67.7068 86.9806C68.6584 86.7504 69.0503 88.6662 68.167 88.8466C67.2838 89.027 66.9106 87.1734 67.7068 86.9806Z" fill="#263238"/>
<path d="M62.3304 87.08C62.5731 86.9675 62.8079 86.8386 63.0333 86.6944C63.2942 86.5931 63.5133 86.4068 63.6553 86.1657C63.6873 86.0796 63.69 85.9855 63.663 85.8977C63.636 85.81 63.5808 85.7336 63.506 85.6805C63.343 85.5973 63.1608 85.5593 62.9781 85.5702C62.7955 85.5811 62.6191 85.6407 62.4672 85.7427C62.1299 85.9024 61.8639 86.1817 61.7208 86.5264C61.6889 86.6095 61.6828 86.7004 61.7034 86.787C61.7239 86.8736 61.7702 86.952 61.8361 87.0119C61.902 87.0717 61.9845 87.1103 62.0727 87.1224C62.1609 87.1346 62.2507 87.1198 62.3304 87.08Z" fill="#263238"/>
<path d="M68.3286 86.3896C68.0549 86.3896 67.7999 86.3399 67.5262 86.315C67.2407 86.3281 66.9589 86.2473 66.7238 86.0849C66.6613 86.0182 66.6221 85.9331 66.612 85.8423C66.6019 85.7514 66.6215 85.6598 66.6678 85.581C66.7843 85.4404 66.9362 85.3334 67.1079 85.2711C67.2796 85.2088 67.4648 85.1934 67.6444 85.2265C68.0195 85.2366 68.377 85.3876 68.6458 85.6495C68.7033 85.7121 68.7415 85.79 68.7558 85.8739C68.7701 85.9577 68.7598 86.0439 68.7263 86.1221C68.6928 86.2002 68.6375 86.2671 68.5669 86.3145C68.4964 86.362 68.4136 86.3881 68.3286 86.3896Z" fill="#263238"/>
<path d="M63.9809 93.9531C64.1331 94.1058 64.3327 94.2023 64.5469 94.2268C64.7701 94.1839 64.982 94.0949 65.1689 93.9655C65.1689 93.9655 65.2124 93.9655 65.1689 93.9966C65.1014 94.1277 65 94.2383 64.8753 94.3171C64.7507 94.3958 64.6072 94.4398 64.4598 94.4445C64.3334 94.4309 64.2136 94.3807 64.1153 94.3001C64.0169 94.2194 63.9443 94.1118 63.9062 93.9904C63.9187 93.9593 63.9622 93.922 63.9809 93.9531Z" fill="#263238"/>
<path d="M64.3142 91.9193C64.5059 92.1308 64.7389 92.3007 64.9989 92.4184C65.2589 92.5361 65.5403 92.5991 65.8257 92.6035C66.0752 92.6084 66.3242 92.5791 66.5658 92.5165L66.7027 92.4791L66.8271 92.4356C66.8587 92.4246 66.8857 92.4033 66.9038 92.3751C66.9218 92.3469 66.9299 92.3134 66.9266 92.2801C66.9302 92.2595 66.9302 92.2385 66.9266 92.2179V92.1681C66.8644 91.7016 66.7027 91.0112 66.7027 91.0112C66.8831 91.0672 67.8098 91.316 67.7539 91.0734C67.3621 89.0062 66.7598 86.9846 65.9563 85.04C65.9525 85.029 65.9453 85.0195 65.9358 85.0128C65.9264 85.0061 65.915 85.0024 65.9034 85.0024C65.8918 85.0024 65.8805 85.0061 65.871 85.0128C65.8615 85.0195 65.8544 85.029 65.8505 85.04C66.1989 86.9558 66.8893 88.772 67.2749 90.7064C66.9451 90.6142 66.6036 90.5702 66.2611 90.5758C66.1989 90.5758 66.5969 91.9069 66.6032 92.1184C66.2321 92.2175 65.8448 92.241 65.4644 92.1876C65.0841 92.1342 64.7183 92.0049 64.3888 91.8074C64.3142 91.826 64.2707 91.8758 64.3142 91.9193Z" fill="#263238"/>
<path d="M66.292 92.4044C66.0935 92.7663 65.8068 93.0723 65.4585 93.2938C65.2704 93.4033 65.0535 93.4532 64.8365 93.4369C64.3451 93.3934 64.2643 92.9642 64.2891 92.5785C64.3022 92.3671 64.3419 92.1581 64.4073 91.9565C64.9728 92.3002 65.6323 92.457 66.292 92.4044Z" fill="#263238"/>
<path d="M65.4585 93.3002C65.2704 93.4097 65.0535 93.4595 64.8365 93.4432C64.3451 93.3997 64.2643 92.9705 64.2891 92.5849C64.5358 92.5577 64.7844 92.6132 64.9961 92.7426C65.2077 92.8721 65.3704 93.0682 65.4585 93.3002Z" fill="#FF9ABB"/>
<path d="M68.034 81.3326C67.5364 80.6422 66.989 79.9518 66.4914 79.8958C65.9938 79.8398 65.9378 81.034 64.9053 81.3326C63.5058 81.7307 62.5417 80.58 60.5513 80.8661C57.659 81.2828 56.9188 83.9326 57.7212 87.9818C58.4365 91.6018 56.3341 92.4104 56.3341 92.4104C56.3341 92.4104 53.2988 84.7412 54.972 81.6249C56.6451 78.5087 61.5403 76.2384 65.546 78.0111C66.9703 78.6518 68.034 81.3326 68.034 81.3326Z" fill="#263238"/>
<path d="M57.7956 90.4014C57.7956 90.4014 55.6621 87.6335 54.3995 88.4048C53.1368 89.176 54.8224 93.2563 56.3774 93.7539C56.5713 93.832 56.7791 93.8699 56.9881 93.8652C57.197 93.8605 57.4029 93.8134 57.5931 93.7267C57.7833 93.64 57.954 93.5156 58.0946 93.361C58.2353 93.2063 58.343 93.0247 58.4114 92.8272L57.7956 90.4014Z" fill="white"/>
<path d="M57.7956 90.4014C57.7956 90.4014 55.6621 87.6335 54.3995 88.4048C53.1368 89.176 54.8224 93.2563 56.3774 93.7539C56.5713 93.832 56.7791 93.8699 56.9881 93.8652C57.197 93.8605 57.4029 93.8134 57.5931 93.7267C57.7833 93.64 57.954 93.5156 58.0946 93.361C58.2353 93.2063 58.343 93.0247 58.4114 92.8272L57.7956 90.4014Z" stroke="black"/>
<path d="M54.9102 89.5679C54.9102 89.5679 54.9102 89.5679 54.9102 89.6114C55.4105 89.8338 55.8589 90.1584 56.2263 90.5644C56.5937 90.9704 56.8721 91.4488 57.0436 91.9688C56.9763 91.8645 56.8873 91.7761 56.7825 91.7096C56.6778 91.6431 56.5599 91.6 56.4369 91.5835C56.3139 91.5669 56.1888 91.5772 56.0702 91.6137C55.9516 91.6501 55.8423 91.7119 55.7499 91.7946C55.7499 91.7946 55.7499 91.8568 55.781 91.8506C55.9663 91.7809 56.1688 91.7705 56.3603 91.8206C56.5519 91.8707 56.7233 91.979 56.8508 92.1305C57.0567 92.3887 57.2379 92.6656 57.3919 92.9578C57.4417 93.0511 57.6159 92.9951 57.5723 92.8831C57.5288 91.4899 56.3843 89.6301 54.9102 89.5679Z" fill="#263238"/>
<path d="M62.6408 76.9165C61.4274 76.5705 60.1706 76.4008 58.9088 76.4127C57.4845 76.4562 53.1491 77.4825 52.2348 78.5275C51.3204 79.5725 51.6936 83.7523 51.7621 84.3619C51.8305 84.9714 52.6702 88.5852 54.1381 89.2632C55.606 89.9412 54.7601 83.7025 56.5204 81.3141C58.2806 78.9256 62.6408 76.9165 62.6408 76.9165Z" fill="black"/>
<path opacity="0.1" d="M62.6404 76.9226C62.6404 76.9226 58.2864 78.9254 56.4888 81.3139C54.6912 83.7024 55.5682 89.9348 54.1128 89.263C53.7735 89.0759 53.4746 88.8235 53.2333 88.5203C52.992 88.2171 52.8132 87.8692 52.707 87.4966C52.707 85.6306 52.9869 82.7072 54.1936 80.5177C55.3257 78.4713 57.6208 77.1589 60.1835 76.4561C61.0144 76.54 61.8365 76.6961 62.6404 76.9226Z" fill="black"/>
<path d="M55.0475 92.8956C54.9044 91.2224 55.8934 86.5201 57.2618 83.7024C58.6302 80.8848 63.5875 78.5896 64.3153 78.5149C66.0942 78.3408 66.6167 79.1369 66.8717 78.9192C67.1267 78.7015 65.0492 76.991 64.5019 76.7733C63.6854 76.5103 62.8203 76.4338 61.9703 76.5494C61.2053 76.6863 56.5589 77.8992 55.1594 80.1819C53.7599 82.4646 52.2485 88.4918 52.8705 89.8664C53.0322 90.1961 53.4925 90.3454 53.7475 90.8181C54.0461 91.4401 54.2949 92.1554 54.5623 92.5784C54.8298 93.0013 55.0599 93.0386 55.0475 92.8956Z" fill="black"/>
<path d="M57.4843 82.5023C57.0528 82.3159 56.6368 82.0955 56.2403 81.8429C55.8235 81.5926 55.4391 81.2917 55.0959 80.9473C55.0959 80.9473 55.0274 80.9473 55.0523 80.9846C55.3539 81.3837 55.7171 81.7323 56.1284 82.0171C56.5415 82.2935 57.004 82.4877 57.4906 82.5893C57.5021 82.5885 57.5129 82.5831 57.5204 82.5744C57.528 82.5656 57.5318 82.5542 57.531 82.5427C57.5302 82.5311 57.5248 82.5204 57.516 82.5128C57.5073 82.5052 57.4959 82.5014 57.4843 82.5023Z" fill="#263238"/>
<path d="M54.7721 91.241C54.7037 91.129 54.6104 91.0357 54.5358 90.93C54.4477 90.8108 54.3746 90.6813 54.3181 90.5443C54.2409 90.2764 54.1346 90.0177 54.0008 89.7731C53.8628 89.5915 53.7042 89.4266 53.5281 89.2817C53.3172 89.1292 53.1638 88.9101 53.0927 88.6597H53.043C53.1176 89.1635 53.5095 89.4683 53.7956 89.8539C53.9411 90.118 54.0618 90.3949 54.1563 90.6812C54.2665 90.9424 54.4586 91.1607 54.7037 91.3032C54.7348 91.3218 54.7908 91.2845 54.7721 91.241Z" fill="#263238"/>
<path d="M55.059 89.3627C54.8724 89.201 54.6796 89.058 54.5054 88.8776C54.3313 88.6972 54.1944 88.5044 54.0514 88.3116C53.9083 88.1187 53.7963 87.9135 53.6595 87.6896C53.5227 87.4656 53.3174 87.248 53.1681 87.0054C53.1681 87.0054 53.1059 87.0054 53.1246 87.0427C53.2801 87.2853 53.3858 87.5652 53.5289 87.814C53.6571 88.0297 53.7983 88.2374 53.9518 88.436C54.097 88.6286 54.2594 88.8077 54.437 88.9709C54.6148 89.1419 54.8268 89.2733 55.059 89.3565C55.059 89.3565 55.0714 89.3752 55.059 89.3627Z" fill="#263238"/>
<path d="M55.4081 87.6524C55.0139 87.4145 54.6574 87.1189 54.3507 86.7754C54.0521 86.4395 53.766 86.085 53.4923 85.7305C53.4923 85.7305 53.4301 85.7305 53.4488 85.7305C53.6522 86.1517 53.9094 86.5447 54.2139 86.8998C54.3618 87.0738 54.5311 87.2285 54.7177 87.3601C54.9198 87.4944 55.1343 87.609 55.3583 87.7022C55.3583 87.7022 55.4392 87.7022 55.4081 87.6524Z" fill="#263238"/>
<path d="M55.8193 85.9975C55.6289 85.9068 55.4578 85.7801 55.3155 85.6243C55.1413 85.4626 54.9734 85.2947 54.8117 85.1205C54.6499 84.9526 54.4882 84.7971 54.3327 84.6291C54.1647 84.4717 54.0313 84.2811 53.9409 84.0693C53.9409 84.0693 53.8849 84.0693 53.8911 84.0693C53.9399 84.2962 54.0399 84.509 54.1834 84.6913C54.3221 84.9124 54.4803 85.1206 54.6562 85.3133C54.8301 85.4926 55.015 85.6608 55.2097 85.8172C55.3743 85.9675 55.5801 86.065 55.8006 86.0971C55.8072 86.0983 55.8139 86.0982 55.8204 86.0968C55.8269 86.0955 55.8331 86.0928 55.8386 86.0891C55.8441 86.0853 55.8487 86.0805 55.8524 86.075C55.856 86.0694 55.8585 86.0632 55.8597 86.0566C55.861 86.0501 55.8609 86.0434 55.8595 86.0369C55.8582 86.0304 55.8555 86.0242 55.8518 86.0187C55.848 86.0132 55.8432 86.0085 55.8376 86.0049C55.8321 86.0013 55.8258 85.9988 55.8193 85.9975Z" fill="#263238"/>
<path d="M55.9812 83.9698C55.7988 83.8454 55.6246 83.7148 55.4588 83.5779C55.297 83.4349 55.1353 83.2918 54.9798 83.1425C54.8243 82.9932 54.6439 82.8315 54.4884 82.6636C54.4884 82.6636 54.4262 82.6636 54.4449 82.6947C54.5633 82.8906 54.6986 83.0758 54.8492 83.2483C54.9978 83.4166 55.1578 83.5746 55.3281 83.721C55.4969 83.868 55.6756 84.0031 55.8631 84.1253C56.0472 84.266 56.2592 84.3657 56.4851 84.4176C56.4902 84.4142 56.4944 84.4096 56.4973 84.4042C56.5002 84.3987 56.5017 84.3927 56.5017 84.3865C56.5017 84.3804 56.5002 84.3743 56.4973 84.3689C56.4944 84.3634 56.4902 84.3588 56.4851 84.3554C56.3294 84.2116 56.1607 84.0825 55.9812 83.9698Z" fill="#263238"/>
<path d="M58.6102 81.3574C58.4112 81.1833 58.2183 81.0091 57.9882 80.8474C57.7581 80.6857 57.5466 80.5426 57.3102 80.4058C56.8638 80.1317 56.3881 79.9085 55.8921 79.7402C55.8921 79.7402 55.8361 79.7713 55.8921 79.79C56.7753 80.3374 57.6896 80.8474 58.5729 81.4072C58.5795 81.4121 58.5878 81.4143 58.5959 81.4131C58.6041 81.4119 58.6115 81.4076 58.6164 81.401C58.6214 81.3944 58.6235 81.3861 58.6223 81.3779C58.6212 81.3698 58.6168 81.3624 58.6102 81.3574Z" fill="#263238"/>
<path d="M59.3874 79.784C59.1953 79.6165 58.9869 79.4685 58.7654 79.3424C58.2746 79.0952 57.757 78.9053 57.2228 78.7764C57.1855 78.7764 57.1669 78.8137 57.2228 78.8261C57.7018 79.0438 58.1807 79.2553 58.641 79.4979C58.8649 79.6223 59.095 79.7467 59.3065 79.8897C59.518 80.0328 59.6984 80.2256 59.9285 80.3811C59.7908 80.1473 59.6066 79.9441 59.3874 79.784Z" fill="#263238"/>
<path d="M60.6631 78.9195C60.4727 78.7481 60.2641 78.5979 60.0411 78.4717C59.6341 78.2247 59.1883 78.048 58.7225 77.9492C58.7225 77.9492 58.6789 77.9928 58.7225 78.0052C59.1551 78.1745 59.5715 78.3826 59.9665 78.6272C60.1655 78.7516 60.3646 78.8884 60.5885 79.0253C60.8124 79.1621 60.9679 79.3363 61.1732 79.4482C61.0203 79.2562 60.8495 79.0792 60.6631 78.9195Z" fill="#263238"/>
<path d="M61.5292 77.9364C61.3363 77.8244 61.1311 77.7187 60.9072 77.6192C60.7127 77.51 60.5031 77.4304 60.2852 77.3828V77.4388L61.4172 78.1043C61.7505 78.3352 62.059 78.5999 62.3378 78.8943C62.3378 78.8943 62.3751 78.8943 62.3378 78.8943C62.1712 78.5006 61.8893 78.1666 61.5292 77.9364Z" fill="#263238"/>
<path d="M62.7294 77.4762C62.3613 77.229 61.9498 77.0539 61.5165 76.96C61.4854 76.96 61.4729 77.0035 61.5165 77.0159C61.9217 77.1638 62.3015 77.3736 62.6423 77.6379C62.9877 77.8888 63.3047 78.1767 63.5877 78.4963C63.5877 78.4963 63.6313 78.4963 63.6188 78.4963C63.4098 78.0889 63.1045 77.7387 62.7294 77.4762Z" fill="#263238"/>
<path d="M65.4829 77.893C65.3686 77.7788 65.2481 77.6708 65.1221 77.5696C64.9959 77.4692 64.8629 77.3778 64.724 77.2959C64.581 77.2088 64.4379 77.128 64.3011 77.0347C64.3011 77.0347 64.2389 77.0658 64.3011 77.0844C64.4466 77.169 64.5841 77.2669 64.7116 77.3768L65.0724 77.6753L65.4393 77.9739C65.5546 78.0857 65.6772 78.1896 65.8063 78.2849C65.7138 78.1424 65.6053 78.0109 65.4829 77.893Z" fill="#263238"/>
<path d="M103.519 66.1247C103.259 68.6171 102.312 70.9884 100.784 72.9737C99.2547 74.9591 97.2039 76.4803 94.8604 77.3675C92.5169 78.2547 89.9729 78.4729 87.5125 77.9979C85.0521 77.5228 82.7723 76.3731 80.9275 74.6772L74.1602 75.6724L77.5438 69.8256C76.7685 67.9234 76.4368 65.8695 76.5739 63.8199C76.7109 61.7702 77.3131 59.7788 78.3348 57.9967C79.3564 56.2146 80.7707 54.6887 82.4701 53.5348C84.1696 52.3809 86.1096 51.6293 88.1429 51.3372C90.1762 51.045 92.2494 51.22 94.205 51.8487C96.1605 52.4775 97.9472 53.5435 99.4293 54.9659C100.911 56.3882 102.05 58.1296 102.758 60.0577C103.467 61.9858 103.727 64.05 103.519 66.0936V66.1247Z" fill="white"/>
<path d="M103.519 66.1247C103.256 68.6131 102.311 70.9806 100.789 72.9667C100.045 73.97 99.1512 74.8531 98.1392 75.5853C97.1429 76.3434 96.0432 76.955 94.8737 77.4016C93.7068 77.8584 92.4823 78.1515 91.235 78.2724C90.6144 78.3247 89.9911 78.3371 89.369 78.3097C88.7429 78.2896 88.1192 78.2231 87.503 78.1106C85.0102 77.6535 82.6945 76.5096 80.8165 74.8078L80.972 74.8576L74.1984 75.8839L73.707 75.9585L73.9558 75.5293L77.3208 69.6639V69.9002C76.525 67.9626 76.1846 65.8682 76.3259 63.7783C76.4671 61.6884 77.0863 59.6588 78.1357 57.8459C79.1897 56.0427 80.6378 54.5011 82.3715 53.3364C84.5294 51.9144 87.0459 51.1325 89.6298 51.0813C92.2136 51.0301 94.7591 51.7116 96.9717 53.047C99.1843 54.3823 100.974 56.317 102.132 58.627C103.291 60.9369 103.772 63.5279 103.519 66.0998V66.1247ZM103.519 66.1247C103.735 64.0884 103.481 62.0298 102.776 60.1073C102.071 58.1848 100.934 56.4498 99.453 55.0359C97.9718 53.622 96.1858 52.5669 94.2327 51.952C92.2795 51.3371 90.2112 51.1787 88.1872 51.489C86.1774 51.7894 84.2628 52.5446 82.5892 53.6972C80.9357 54.8587 79.5541 56.3655 78.54 58.1133C77.5454 59.8655 76.9586 61.8193 76.8233 63.8295C76.701 65.8412 77.026 67.855 77.7749 69.7261L77.8247 69.8443L77.7625 69.9562L74.3539 75.7906L74.1176 75.436L80.8849 74.4844H80.9782L81.0466 74.5466C82.8529 76.2385 85.0952 77.3931 87.5217 77.8805C88.1364 78.0065 88.7605 78.0814 89.3877 78.1044C90.0089 78.1489 90.6325 78.1489 91.2537 78.1044C92.4894 78.0084 93.7057 77.7404 94.8675 77.3083C96.0352 76.8864 97.1336 76.2931 98.1267 75.548C98.6286 75.183 99.1064 74.7862 99.5574 74.36C99.9999 73.919 100.415 73.4517 100.801 72.9605C102.319 70.9751 103.259 68.6098 103.519 66.1247Z" fill="#263238"/>
<path d="M88.487 72.4318L82.7148 66.585L84.6555 64.6692L88.0267 68.084L95.0367 57.0933L97.3381 58.5612L88.487 72.4318Z" fill="black"/>
</svg>
