<svg width="254" height="240" viewBox="0 0 254 240" fill="none" xmlns="http://www.w3.org/2000/svg">
<path d="M170.062 65.4454C170.129 64.0573 170.196 62.6692 170.196 61.2643V47.2327H68.8133V61.2643C68.8133 62.6692 68.8801 64.0573 68.947 65.4454H42.623V78.1224C42.623 91.5185 46.9881 104.145 54.9154 113.678C62.9263 123.328 74.1148 128.847 85.5877 128.847H96.4919C100.823 133.246 105.573 137.276 110.758 140.822V181.796H128.235V140.822C133.419 137.276 138.169 133.246 142.5 128.847H153.405C164.877 128.847 176.066 123.311 184.077 113.678C192.004 104.145 196.369 91.5185 196.369 78.1224V65.4454H170.045H170.062ZM85.6044 119.498C76.7907 119.498 68.4453 115.3 62.1235 107.691C55.6847 99.9476 51.9886 89.1604 51.9886 78.1057V74.7775H69.8334C72.1581 91.1673 78.6304 106.52 88.4643 119.482H85.6211L85.6044 119.498ZM187.037 78.1057C187.037 89.1604 183.341 99.9308 176.902 107.691C170.58 115.3 162.235 119.498 153.421 119.498H150.578C160.412 106.537 166.884 91.184 169.209 74.7943H187.054V78.1224L187.037 78.1057Z" fill="url(#paint0_linear_382_5631)"/>
<path style="mix-blend-mode:color-burn" d="M170.178 47.2327H68.8125V54.6248H170.178V47.2327Z" fill="url(#paint1_linear_382_5631)"/>
<path d="M148.085 173.701H90.9043V188.352H148.085V173.701Z" fill="#435192"/>
<path d="M158.955 181.796H80.0332V212H158.955V181.796Z" fill="#333F71"/>
<path d="M119.505 63.7898L126.813 78.6075L143.153 80.9823L131.329 92.5054L134.122 108.795L119.505 101.102L104.888 108.795L107.664 92.5054L95.8398 80.9823L112.196 78.6075L119.505 63.7898Z" fill="#EFF6FE"/>
<path d="M196.386 27.9998L199.296 34.9905L206.287 37.9172L199.296 40.8273L196.386 47.8347L193.459 40.8273L186.469 37.9172L193.459 34.9905L196.386 27.9998Z" fill="#B3C0D0"/>
<path d="M42.6245 173.016L45.5513 180.023L52.542 182.933L45.5513 185.86L42.6245 192.851L39.6978 185.86L32.707 182.933L39.6978 180.023L42.6245 173.016Z" fill="#B3C0D0"/>
<path d="M217.289 58.5886L219.212 63.1878L223.812 65.1111L219.212 67.0344L217.289 71.6336L215.366 67.0344L210.75 65.1111L215.366 63.1878L217.289 58.5886Z" fill="#B3C0D0"/>
<path d="M36.083 34.7732L38.023 39.3724L42.6222 41.2957L38.023 43.2189L36.083 47.8348L34.1597 43.2189L29.5605 41.2957L34.1597 39.3724L36.083 34.7732Z" fill="#B3C0D0"/>
<path d="M183.91 143.832L185.834 148.431L190.433 150.354L185.834 152.278L183.91 156.877L181.987 152.278L177.371 150.354L181.987 148.431L183.91 143.832Z" fill="#B3C0D0"/>
<path d="M62.924 141.675L64.8472 146.274L69.4464 148.197L64.8472 150.12L62.924 154.736L61.0007 150.12L56.3848 148.197L61.0007 146.274L62.924 141.675Z" fill="#B3C0D0"/>
<defs>
<linearGradient id="paint0_linear_382_5631" x1="119.505" y1="68.8906" x2="119.505" y2="192.968" gradientUnits="userSpaceOnUse">
<stop stop-color="#FFCD50"/>
<stop offset="1" stop-color="#EFAC18"/>
</linearGradient>
<linearGradient id="paint1_linear_382_5631" x1="119.504" y1="44.7909" x2="119.504" y2="54.4074" gradientUnits="userSpaceOnUse">
<stop stop-color="#FFCD50"/>
<stop offset="1" stop-color="#EFAC18"/>
</linearGradient>
</defs>
</svg>
